 <svg  version="1.0" xmlns="http://www.w3.org/2000/svg"  width="300.000000pt" height="272.000000pt" viewBox="0 0 300.000000 272.000000"  preserveAspectRatio="xMidYMid meet">  <g transform="translate(0.000000,272.000000) scale(0.100000,-0.100000)" fill="#ffffff" stroke="none"> <path d="M2995 1360 c0 -751 1 -1058 2 -682 2 375 2 989 0 1365 -1 375 -2 68 -2 -683z"/> <path d="M1000 2530 c-8 -5 -36 -14 -63 -21 -53 -13 -71 -29 -33 -29 14 0 28 5 31 10 3 6 19 10 36 10 16 0 29 5 29 10 0 6 14 10 30 10 22 0 30 -5 30 -17 0 -13 3 -14 12 -5 27 27 -34 54 -72 32z"/> <path d="M760 2473 c-83 -4 -130 -12 -130 -22 0 -10 186 -8 196 2 4 4 16 7 26 7 10 0 18 5 18 10 0 6 -10 9 -22 8 -13 -1 -52 -3 -88 -5z"/> <path d="M1084 2410 c3 -43 10 -68 20 -76 9 -6 16 -16 16 -23 0 -6 5 -11 10 -11 13 0 13 27 1 32 -6 2 -15 26 -22 53 -20 86 -30 96 -25 25z"/> <path d="M593 2417 c-7 -14 -8 -29 -2 -38 5 -8 6 -21 4 -29 -2 -8 0 -22 5 -30 12 -18 13 -13 15 63 1 61 -5 71 -22 34z"/> <path d="M1135 2266 c-15 -11 -12 -14 24 -26 44 -14 62 -9 40 13 -22 21 -46 26 -64 13z"/> <path d="M978 2258 c12 -6 22 -15 22 -20 0 -4 6 -8 14 -8 20 0 93 -83 111 -126 8 -20 15 -66 15 -102 0 -58 -6 -78 -44 -157 -54 -112 -58 -126 -63 -254 -4 -106 -1 -125 39 -208 34 -70 128 -143 128 -100 0 7 -5 18 -10 23 -6 6 -10 79 -11 172 -1 186 9 227 88 338 47 68 95 104 169 128 27 9 58 20 69 25 35 16 191 34 226 27 19 -4 50 -9 69 -12 55 -8 163 -56 237 -106 23 -15 46 -28 52 -28 6 0 11 -4 11 -8 0 -4 14 -16 31 -26 44 -26 105 -91 148 -156 20 -30 39 -56 44 -58 4 -2 7 -10 7 -18 0 -8 4 -22 9 -32 32 -63 38 -96 47 -244 4 -54 3 -98 -1 -98 -9 0 -65 62 -65 73 0 4 -7 7 -15 7 -8 0 -15 5 -15 10 0 6 -7 10 -15 10 -21 0 -19 -17 4 -36 11 -10 17 -24 13 -37 -3 -14 -1 -18 6 -13 7 4 12 15 12 24 1 15 3 14 15 -3 27 -37 68 -75 82 -75 9 0 13 13 13 39 0 22 7 46 15 55 20 19 19 23 -5 29 -11 3 -20 13 -20 24 0 16 9 18 94 17 80 -1 98 -4 125 -23 17 -12 31 -31 31 -41 0 -19 -48 -60 -70 -60 -7 0 -24 -8 -38 -18 -67 -46 -167 -79 -266 -87 -71 -7 -166 -28 -166 -37 0 -4 -14 -8 -30 -8 -17 0 -38 -4 -48 -9 -9 -5 -32 -16 -49 -23 -18 -7 -33 -17 -33 -23 1 -5 5 -40 9 -78 5 -37 7 -76 4 -87 -9 -36 -23 -21 -23 25 0 25 -4 45 -10 45 -13 0 -13 -74 -1 -98 5 -9 16 -32 23 -49 7 -18 18 -33 25 -33 9 0 12 32 9 130 -2 88 0 133 8 137 6 4 25 6 43 4 19 -1 33 2 33 8 0 6 -9 11 -20 11 -11 0 -20 5 -20 10 0 6 20 10 44 10 25 0 48 4 51 10 3 5 19 10 35 10 16 0 32 5 35 10 9 14 68 13 83 -2 9 -9 15 -9 24 0 7 7 21 12 32 12 34 0 103 25 211 77 136 65 172 125 98 162 -17 9 -36 24 -42 33 -9 15 -6 19 22 27 29 8 30 9 7 11 -14 1 -33 2 -42 1 -10 -1 -18 2 -18 6 0 5 -16 17 -35 27 -27 15 -38 17 -47 8 -9 -9 -6 -12 15 -12 30 0 38 -26 10 -33 -10 -2 -5 -3 11 -1 22 3 27 1 22 -12 -3 -9 -6 -18 -6 -20 0 -2 -20 -4 -44 -4 -59 0 -96 29 -96 75 0 19 -4 37 -10 40 -6 3 -10 15 -10 26 0 10 -4 27 -9 37 -5 9 -15 31 -22 47 -8 17 -16 32 -20 35 -3 3 -13 22 -23 43 -10 21 -38 60 -64 85 l-46 47 43 3 c41 3 101 -15 101 -30 0 -5 6 -8 14 -8 15 0 156 -144 156 -160 0 -6 -24 -10 -52 -10 -39 -1 -49 -3 -36 -10 9 -6 25 -9 35 -8 52 4 93 -3 93 -16 0 -8 9 -18 20 -21 11 -3 20 -10 20 -14 0 -5 14 -22 30 -39 17 -18 30 -34 30 -37 0 -3 9 -16 20 -28 19 -20 20 -23 4 -34 -16 -12 -16 -13 2 -18 10 -4 27 -11 37 -16 20 -11 38 -3 22 9 -6 4 -21 27 -34 52 -13 25 -40 63 -60 86 -20 23 -58 67 -86 99 -114 133 -195 205 -229 205 -9 0 -16 5 -16 10 0 6 -30 10 -71 10 -73 0 -72 -1 -146 60 -7 6 -24 15 -38 22 -14 6 -25 15 -25 20 0 4 -7 8 -15 8 -8 0 -15 3 -15 8 0 4 -15 13 -32 20 -18 8 -50 22 -71 33 -22 10 -54 19 -72 19 -19 0 -37 5 -40 10 -3 6 -52 10 -111 10 -63 0 -104 -4 -104 -10 0 -5 -20 -10 -44 -10 -25 0 -48 -4 -51 -10 -3 -5 -19 -10 -36 -10 -16 0 -29 -4 -29 -10 0 -5 -7 -10 -15 -10 -17 0 -82 -35 -109 -59 -35 -31 -116 -160 -116 -186 0 -14 -4 -25 -9 -25 -16 0 -34 -247 -18 -257 4 -2 5 -7 3 -11 -2 -4 0 -29 4 -55 12 -82 -15 -71 -61 23 -11 25 -25 53 -30 62 -13 25 -12 258 1 258 6 0 10 11 10 24 0 13 14 50 30 81 17 31 30 63 30 70 0 7 5 15 11 17 17 6 18 200 1 206 -6 2 -12 12 -12 23 0 20 -82 110 -117 128 -12 6 -32 11 -45 10 l-23 0 23 -11z"/> <path d="M928 2252 c-20 -4 -24 -17 -8 -27 18 -11 11 -102 -10 -140 -11 -20 -20 -42 -20 -50 0 -17 -19 -43 -71 -97 -34 -35 -38 -37 -70 -28 -79 23 -92 110 -33 225 38 75 63 95 120 95 18 0 36 5 39 10 4 6 -12 10 -39 10 -25 0 -46 -4 -46 -9 0 -5 -13 -11 -28 -14 -28 -6 -82 -71 -82 -100 0 -7 -4 -17 -10 -23 -5 -5 -11 -35 -12 -67 -1 -31 -5 -57 -8 -57 -13 0 -34 -131 -34 -217 -1 -74 3 -96 16 -110 16 -15 19 -15 35 -1 10 8 26 18 36 21 15 6 17 -2 17 -73 0 -104 -10 -104 -52 -2 -15 36 -28 42 -28 12 0 -34 62 -120 102 -141 16 -8 17 -7 8 16 -11 29 -14 144 -4 169 5 13 9 14 20 5 12 -10 14 -1 14 54 0 36 5 69 10 72 6 3 10 21 10 39 0 19 7 39 15 46 8 7 15 18 15 25 0 6 8 19 19 29 10 9 28 38 41 64 12 26 30 62 39 81 9 19 24 39 34 45 15 9 23 6 43 -18 18 -20 24 -35 19 -50 -4 -12 -9 -37 -12 -56 -3 -19 -14 -49 -24 -67 -11 -19 -19 -42 -19 -53 0 -11 -4 -20 -10 -20 -5 0 -10 -7 -10 -15 0 -8 -5 -25 -12 -38 -25 -48 -28 -58 -28 -80 0 -13 -5 -28 -11 -34 -17 -17 2 -216 22 -229 5 -3 9 -13 9 -23 0 -21 22 -71 33 -71 4 0 7 -8 7 -17 0 -36 147 -203 178 -203 6 0 12 -3 14 -7 6 -14 90 -53 114 -53 13 0 24 -4 24 -10 0 -5 16 -10 35 -10 19 0 35 5 35 10 0 6 -13 10 -30 10 -16 0 -30 5 -30 10 0 6 -13 10 -29 10 -17 0 -33 5 -36 11 -4 5 -17 14 -28 18 -36 14 -140 97 -170 136 -32 41 -97 167 -97 189 0 8 -4 18 -10 21 -5 3 -10 23 -10 44 0 20 -4 41 -9 47 -10 10 7 175 19 184 12 9 100 220 100 240 0 11 5 29 12 39 22 36 -27 112 -74 115 -20 1 -23 7 -26 56 -3 62 -1 58 -24 52z m-220 -353 l40 -22 -3 -56 c-4 -66 -18 -117 -31 -114 -5 1 -19 -5 -32 -13 -33 -22 -42 -10 -42 57 0 46 4 63 19 76 17 14 18 18 6 27 -11 9 -11 66 0 66 2 0 21 -10 43 -21z m74 -64 c-2 -19 -8 -35 -13 -35 -5 0 -9 16 -9 35 0 22 5 35 13 35 9 0 12 -11 9 -35z"/> <path d="M591 2224 c-6 -15 -23 -35 -36 -46 -27 -21 -33 -48 -12 -48 7 0 18 9 25 20 7 11 22 20 35 20 18 0 19 2 7 10 -13 8 -13 13 -2 31 8 13 10 25 5 30 -6 6 -14 -1 -22 -17z"/> <path d="M762 2099 c4 -30 33 -48 50 -31 17 17 -1 46 -31 50 -18 3 -22 -1 -19 -19z"/> <path d="M2448 1500 c-7 -11 -18 -20 -25 -20 -7 0 -13 -4 -13 -10 0 -5 7 -10 15 -10 8 0 15 3 15 8 0 8 48 32 66 32 7 0 16 5 19 10 4 6 -8 10 -29 10 -25 0 -40 -6 -48 -20z"/> <path d="M2174 1274 c3 -9 6 -18 6 -20 0 -2 5 -4 11 -4 6 0 29 -14 51 -31 57 -45 56 -30 -1 24 -50 47 -78 60 -67 31z"/> <path d="M1915 1181 c-3 -6 -14 -11 -24 -11 -9 0 -39 -10 -67 -23 -27 -13 -75 -30 -107 -37 -32 -7 -60 -17 -63 -22 -3 -4 -16 -8 -30 -8 -13 0 -24 -4 -24 -10 0 -5 11 -10 24 -10 14 0 28 5 31 10 3 6 29 10 57 10 38 0 69 9 127 37 42 21 94 40 116 43 22 3 40 10 40 15 0 14 -72 19 -80 6z"/> <path d="M1557 1046 c-8 -20 4 -136 14 -136 12 0 12 137 0 144 -5 3 -11 0 -14 -8z"/> <path d="M1400 1024 c8 -10 20 -25 27 -34 7 -8 26 -34 43 -57 32 -45 47 -53 56 -28 4 8 -8 26 -30 45 -19 17 -38 39 -41 50 -3 10 -13 21 -23 24 -9 3 -24 9 -32 13 -13 6 -13 4 0 -13z"/> <path d="M1544 844 c4 -27 6 -65 6 -84 -4 -109 0 -212 9 -229 7 -12 8 -36 2 -64 -5 -26 -4 -66 1 -94 5 -26 11 -72 12 -102 2 -31 8 -57 14 -59 7 -2 12 -12 12 -23 0 -10 5 -19 10 -19 6 0 10 9 10 20 0 23 10 26 28 8 9 -9 12 0 12 40 0 39 -4 52 -15 52 -11 0 -13 -8 -9 -30 5 -24 3 -30 -10 -30 -19 0 -40 46 -31 68 3 9 13 12 25 9 16 -4 20 0 20 19 0 19 -5 24 -24 24 -13 0 -27 7 -30 16 -9 24 -7 93 3 113 7 11 6 41 -1 82 -6 35 -10 105 -9 155 2 57 -2 94 -8 99 -6 3 -11 19 -11 35 0 16 -5 32 -11 36 -8 5 -9 -8 -5 -42z"/> <path d="M1517 793 c-4 -6 -3 -23 2 -39 l8 -29 7 29 c7 28 -6 57 -17 39z"/> <path d="M1568 142 c-7 -2 -22 -7 -33 -12 -11 -5 -51 -11 -90 -14 -101 -6 -118 -9 -123 -24 -3 -11 15 -12 89 -9 110 6 169 16 169 28 0 5 23 9 50 9 35 0 50 4 50 13 0 10 -15 13 -50 13 -27 -1 -56 -2 -62 -4z"/> </g> </svg> 