<svg xmlns="http://www.w3.org/2000/svg" aria-hidden="true" data-bbox="25 33 150 134" data-type="color" viewBox="25 33 150 134"><defs><style>#comp-m69434ay3__item-ker6vm4a svg [data-color=&quot;1&quot;]{fill:#1d0e03}</style></defs><path fill="#43aaef" d="M100 33 25 167h150L100 33z" data-color="1" opacity=".2"/><path fill="#43aaef" d="M116.5 62.6 58.1 167H175L116.5 62.6z" data-color="1" opacity=".3"/><path fill="#43aaef" d="M83.5 62.6 25 167h116.9L83.5 62.6z" data-color="1" opacity=".3"/><path fill="#43aaef" d="M133.1 92.2 91.3 167H175l-41.9-74.8z" data-color="1" opacity=".4"/><path fill="#43aaef" d="M149.6 121.7 124.2 167H175l-25.4-45.3zM66.9 92.2 25 167h83.7L66.9 92.2z" data-color="1" opacity=".4"/><path fill="#43aaef" d="M50.4 121.7 25 167h50.8l-25.4-45.3z" data-color="1" opacity=".4"/><path fill="#43aaef" d="m166.1 151.1-8.9 15.9H175l-8.9-15.9zM33.9 151.1 25 167h17.8l-8.9-15.9zM124.2 167h17.7l-8.8-15.9-8.9 15.9zM91.3 167h17.4l-8.7-15.6-8.7 15.6zM58.1 167h17.7l-8.9-15.9-8.8 15.9z" data-color="1"/></svg>