<svg xmlns="http://www.w3.org/2000/svg" aria-hidden="true" data-bbox="39.5 30 121 140" data-type="color" viewBox="39.5 30 121 140"><defs><style>#comp-m69434ay3__item-ker6vlu0 svg [data-color=&quot;1&quot;]{fill:#1d0e03}</style></defs><path fill="#4acdde" d="M100 30 39.5 65.1v40.6L100 70.8l60.5 34.9v29.2-69.8L100 30z" data-color="1" opacity=".15"/><path fill="#4acdde" d="m100 70.8-60.5 34.9v11.9l60.5-35 60.5 35v17.3-29.2L100 70.8z" data-color="1" opacity=".25"/><path fill="#4acdde" d="m100 82.6-60.5 35v11.9l60.5-35 60.5 35v5.4-17.3l-60.5-35z" data-color="1" opacity=".4"/><path fill="#4acdde" d="m100 94.5-60.5 35v5.4l5.6 3.2 54.9-31.7 54.9 31.7 5.6-3.2v-5.4l-60.5-35z" data-color="1" opacity=".6"/><path fill="#4acdde" d="m45.1 138.1 12.1 7.1 42.8-24.8 42.8 24.8 12.1-7.1-54.9-31.7-54.9 31.7z" data-color="1" opacity=".8"/><path fill="#4acdde" d="M57.2 145.2 100 170l42.8-24.8-42.8-24.8-42.8 24.8z" data-color="1"/></svg>