 <svg  version="1.0" xmlns="http://www.w3.org/2000/svg"  width="300.000000pt" height="168.000000pt" viewBox="0 0 300.000000 168.000000"  preserveAspectRatio="xMidYMid meet">  <g transform="translate(0.000000,168.000000) scale(0.100000,-0.100000)" fill="#008efa" stroke="none"> <path d="M32 1668 c-7 -7 -12 -23 -12 -36 0 -19 4 -23 18 -17 9 5 40 11 69 14 59 8 71 15 55 34 -14 17 -114 21 -130 5z"/> <path d="M180 1666 c0 -17 62 -28 72 -12 12 17 9 26 -7 26 -8 0 -15 -5 -15 -12 0 -9 -3 -9 -12 0 -16 16 -38 15 -38 -2z"/> <path d="M490 1672 c0 -27 71 -45 85 -21 4 6 17 14 29 19 17 7 14 9 -19 9 -23 1 -46 -4 -53 -11 -9 -9 -12 -9 -12 0 0 7 -7 12 -15 12 -8 0 -15 -4 -15 -8z"/> <path d="M685 1669 c17 -4 43 -22 59 -38 23 -24 34 -28 61 -24 18 3 42 0 53 -6 30 -16 40 6 12 26 -14 10 -20 22 -17 34 6 23 -18 26 -40 4 -8 -8 -19 -12 -25 -9 -6 4 -5 10 3 16 11 7 9 8 -6 6 -28 -5 -25 -30 5 -45 14 -7 19 -13 12 -13 -25 0 -52 21 -52 40 0 17 -7 20 -47 19 -45 -1 -46 -1 -18 -10z"/> <path d="M866 1665 c-5 -14 12 -35 30 -35 6 0 17 6 23 14 10 11 8 15 -6 18 -10 2 23 5 73 6 80 2 94 0 125 -20 19 -13 42 -40 52 -61 14 -27 25 -37 42 -37 33 0 85 -55 85 -90 0 -16 7 -30 16 -34 23 -9 24 -8 24 12 0 10 7 28 16 40 9 13 11 22 4 22 -20 0 -60 49 -60 74 0 52 68 77 91 34 10 -18 8 -24 -6 -34 -17 -12 -17 -14 -1 -20 18 -7 46 12 46 31 0 23 -51 55 -86 55 -47 0 -81 -15 -115 -52 -27 -30 -29 -31 -21 -8 26 72 154 98 213 44 22 -19 25 -54 7 -72 -16 -16 -53 -15 -67 2 -10 12 -8 17 10 26 20 11 20 13 5 28 -23 23 -50 4 -54 -36 -3 -24 3 -34 23 -48 22 -14 32 -15 65 -5 23 7 47 23 57 38 15 23 15 28 2 51 -28 51 -74 72 -158 72 -46 0 -71 -4 -62 -9 9 -6 1 -12 -30 -22 -41 -13 -45 -13 -66 9 -22 22 -30 23 -148 21 -87 -1 -125 -6 -129 -14z"/> <path d="M1159 1666 c7 -8 21 -12 32 -9 35 9 31 23 -7 23 -30 0 -34 -2 -25 -14z"/> <path d="M1430 1663 c73 -50 67 -118 -15 -154 -62 -28 -99 -89 -52 -89 14 1 29 13 42 33 11 18 44 48 73 67 44 29 52 39 52 65 0 41 -54 95 -95 95 l-29 0 24 -17z"/> <path d="M1513 1657 c19 -20 25 -21 42 -10 11 7 32 13 47 13 16 0 28 5 28 10 0 6 -30 10 -70 10 l-69 0 22 -23z"/> <path d="M1650 1665 c0 -7 -17 -16 -37 -20 -52 -9 -73 -23 -67 -40 11 -29 -6 -64 -43 -86 -46 -27 -103 -79 -103 -93 1 -6 15 -20 33 -31 18 -11 36 -30 42 -43 13 -29 21 -28 40 8 8 16 24 34 35 40 22 12 27 49 8 68 -13 13 -56 16 -83 6 -10 -4 -23 -21 -31 -38 -11 -25 -13 -27 -14 -9 0 20 51 73 70 73 5 0 26 11 46 25 20 13 51 27 68 31 25 4 35 13 45 39 15 43 68 70 120 61 50 -9 63 -9 86 -1 12 3 28 0 40 -10 19 -14 17 -15 -23 -9 -37 6 -42 5 -36 -11 6 -16 5 -16 -24 -1 -61 32 -124 13 -151 -45 -10 -21 -25 -36 -41 -39 -14 -3 -42 -11 -62 -19 l-36 -14 30 -29 c56 -52 134 -28 178 55 32 61 116 82 161 41 13 -12 22 -13 38 -5 33 18 121 -29 121 -65 0 -8 13 -20 29 -29 16 -8 38 -25 48 -37 11 -15 26 -22 40 -20 16 2 26 -4 34 -22 10 -21 15 -23 35 -16 37 14 28 -4 -11 -23 -48 -23 -88 -87 -95 -153 -5 -48 -4 -54 12 -54 15 0 18 8 18 43 0 23 8 58 19 77 19 37 73 80 100 80 9 0 -2 -10 -23 -23 -49 -27 -88 -97 -84 -146 4 -51 24 -49 32 3 12 77 90 157 153 156 10 -1 -4 -12 -32 -25 -63 -31 -105 -90 -105 -150 0 -45 5 -56 24 -49 7 3 10 20 8 43 -7 76 57 145 130 139 32 -3 35 -1 27 15 -6 9 -7 23 -2 30 5 8 9 3 13 -13 5 -21 12 -25 39 -23 21 1 30 -2 24 -8 -6 -6 -39 -11 -74 -13 -79 -3 -111 -23 -133 -78 -20 -47 -13 -75 23 -105 55 -47 113 -22 127 54 13 69 -56 113 -92 58 -19 -30 -11 -58 21 -73 24 -11 25 -10 25 19 0 27 -2 30 -15 19 -12 -10 -15 -10 -15 4 0 22 37 20 45 -3 6 -20 -8 -65 -24 -76 -7 -3 -8 0 -5 9 4 11 0 16 -13 16 -28 0 -43 20 -43 56 0 58 54 89 99 57 35 -27 42 -103 12 -144 -19 -26 -20 -27 -1 -32 59 -15 86 127 34 184 -16 18 -16 19 0 19 22 0 46 -57 46 -108 0 -25 -9 -52 -24 -75 -21 -31 -22 -36 -9 -42 18 -6 58 27 79 66 25 49 27 101 5 143 -26 49 -19 60 8 15 40 -65 21 -162 -41 -214 -33 -28 -30 -52 5 -34 12 6 37 25 55 42 17 17 32 26 32 20 0 -12 -61 -68 -82 -75 -10 -4 -10 -11 4 -39 13 -27 17 -30 17 -13 1 25 37 74 55 74 7 0 22 26 33 59 17 53 17 60 3 70 -12 9 -11 10 8 6 14 -4 31 1 48 14 31 24 91 28 119 7 17 -12 23 -12 47 0 35 18 62 18 98 -1 30 -15 30 -15 30 11 l0 26 -100 -4 c-71 -3 -95 -1 -82 6 9 6 54 11 99 11 46 0 83 4 83 9 0 6 -10 20 -21 32 -13 14 -23 41 -27 69 -4 40 -1 50 22 74 20 21 24 30 14 33 -11 4 -11 8 0 20 11 13 8 20 -20 43 -27 23 -39 26 -73 22 -37 -5 -39 -5 -20 9 25 19 71 11 100 -16 l22 -20 0 29 c0 24 -7 33 -33 46 -30 14 -37 14 -69 1 -19 -8 -35 -20 -35 -25 0 -6 -12 -8 -29 -5 -33 7 -71 -10 -71 -32 0 -13 2 -13 22 0 42 30 69 17 82 -36 5 -22 0 -33 -27 -61 -28 -27 -32 -37 -25 -57 17 -45 -46 -98 -123 -103 -21 -1 -29 -7 -29 -21 0 -16 5 -18 43 -12 23 4 61 18 84 32 53 31 77 73 69 123 -4 21 -3 31 2 23 6 -9 14 -6 32 13 14 15 34 25 49 24 26 -1 26 -1 -5 -14 -42 -18 -58 -41 -60 -81 -2 -62 -98 -134 -176 -134 -20 0 -39 -6 -41 -12 -3 -8 -6 -6 -6 5 -1 10 -8 34 -18 55 -9 20 -16 40 -15 43 0 3 -25 6 -57 6 -47 0 -68 6 -114 32 -61 35 -97 73 -97 103 0 33 29 77 55 84 14 3 22 10 19 15 -8 13 -65 1 -86 -18 -21 -18 -24 -73 -6 -91 9 -9 9 -12 0 -12 -16 0 -32 33 -32 65 0 14 11 37 25 50 13 14 19 25 14 25 -6 0 -24 -13 -39 -30 -25 -26 -29 -28 -35 -12 -7 15 -8 15 -15 -3 -8 -23 3 -69 22 -93 7 -8 31 -23 53 -33 31 -15 35 -19 17 -19 -31 0 -76 24 -100 55 -11 14 -25 25 -31 25 -47 0 -91 54 -91 110 0 19 -11 41 -33 64 -30 32 -38 35 -80 33 -26 -2 -50 -6 -53 -10 -12 -12 -26 -8 -21 6 3 9 -29 12 -139 13 -108 1 -144 -2 -144 -11z m405 -37 c14 -6 25 -15 25 -20 0 -12 -18 -10 -26 3 -4 7 -22 9 -45 6 -37 -5 -54 5 -26 16 21 9 45 7 72 -5z m-431 -25 c8 -19 0 -28 -31 -38 -18 -5 -23 -2 -23 12 0 38 42 58 54 26z m109 -15 c-67 -90 -76 -98 -104 -98 -39 0 -38 26 1 35 16 4 46 22 65 41 35 34 56 46 38 22z m355 -20 c6 -6 12 -16 12 -24 0 -9 -10 -7 -35 9 -19 12 -34 26 -35 30 0 10 39 -1 58 -15z m860 -64 c37 -10 25 -19 -29 -20 -45 0 -49 1 -33 13 20 14 29 15 62 7z m-1403 -69 c0 -12 -8 -21 -20 -23 -20 -4 -20 -4 0 11 19 15 19 16 2 22 -24 10 -49 -13 -41 -38 4 -13 2 -17 -5 -13 -15 9 -14 39 1 54 20 20 63 11 63 -13z m1390 -163 c-8 -8 -38 -12 -52 -7 -8 3 -6 15 8 42 10 20 19 46 20 58 0 11 7 -4 15 -34 8 -30 12 -56 9 -59z m-396 -14 c10 -26 3 -44 -10 -31 -14 14 -19 53 -8 53 5 0 13 -10 18 -22z"/> <path d="M2098 1645 c15 -17 29 -27 30 -23 2 4 8 8 12 8 5 0 4 -14 -2 -30 -5 -17 -7 -42 -4 -56 8 -29 52 -74 72 -74 23 0 16 26 -11 38 -33 15 -42 55 -22 98 9 19 22 34 28 34 8 0 6 7 -4 18 -10 10 -24 19 -32 19 -18 0 -19 -9 -3 -25 19 -19 -8 -15 -31 5 -11 9 -29 17 -40 18 -18 1 -18 -1 7 -30z"/> <path d="M2210 1665 c7 -8 3 -24 -12 -53 -18 -32 -21 -46 -13 -68 6 -15 16 -29 23 -32 11 -3 12 7 7 49 -6 47 -4 57 15 77 21 23 93 32 104 13 4 -5 -11 -7 -32 -4 -43 6 -68 -11 -78 -53 -9 -34 3 -42 22 -15 9 13 35 31 58 41 37 16 44 16 70 3 40 -21 30 5 -14 35 -27 18 -46 22 -97 21 -49 -1 -61 -4 -53 -14z"/> <path d="M2384 1659 c14 -11 26 -28 26 -37 0 -14 10 -17 48 -17 52 0 86 18 94 53 5 19 2 22 -20 22 -20 0 -23 -3 -14 -12 24 -24 11 -29 -18 -8 -32 23 -40 19 -15 -6 8 -9 15 -21 15 -27 0 -7 -7 -4 -14 6 -7 9 -18 17 -25 17 -6 0 -11 7 -11 15 0 9 -9 15 -21 15 -18 0 -19 -2 -9 -15 9 -11 9 -15 1 -15 -6 0 -14 7 -17 15 -4 8 -15 15 -26 15 -19 0 -18 -2 6 -21z"/> <path d="M2696 1665 c-3 -9 -6 -26 -6 -37 0 -15 4 -18 18 -12 9 4 40 10 67 13 41 5 50 9 50 26 0 18 -8 20 -61 23 -49 2 -63 0 -68 -13z"/> <path d="M2846 1666 c7 -18 67 -27 76 -12 13 19 9 26 -13 26 -13 0 -18 -4 -13 -12 6 -10 4 -10 -7 0 -18 17 -50 16 -43 -2z"/> <path d="M289 1638 c-7 -14 -21 -18 -57 -18 -27 0 -57 -7 -68 -15 -10 -8 -31 -15 -46 -15 -45 0 -78 -22 -99 -63 -11 -21 -18 -42 -15 -45 3 -3 6 -1 6 3 0 5 7 0 15 -11 8 -10 15 -29 15 -40 0 -12 6 -27 14 -33 23 -20 25 -49 4 -76 -11 -14 -28 -25 -39 -25 -10 0 -19 -4 -19 -10 0 -16 38 -11 80 10 43 22 59 55 41 88 -9 17 -8 22 8 27 10 3 27 15 37 27 l19 22 -25 -17 c-13 -9 -36 -17 -50 -16 -23 1 -23 1 6 10 43 12 71 45 58 66 -15 25 -33 27 -41 6 -3 -10 -11 -21 -16 -24 -12 -8 -47 1 -47 11 0 5 -2 15 -5 22 -7 17 69 62 91 54 9 -3 27 3 41 14 31 24 95 27 113 5 15 -18 10 -18 -24 -5 -29 11 -81 -4 -90 -25 -3 -10 -15 -12 -39 -8 -24 3 -38 0 -50 -12 -26 -25 -20 -39 8 -21 43 28 66 18 79 -37 6 -24 1 -34 -26 -60 -30 -28 -33 -35 -24 -59 15 -44 -30 -84 -116 -102 -16 -4 -28 -13 -28 -22 0 -13 7 -15 37 -9 93 17 158 78 151 140 -2 19 -2 32 0 30 3 -2 18 7 34 20 16 14 39 25 51 25 17 0 13 -5 -18 -23 -27 -15 -41 -30 -43 -47 -6 -51 -12 -68 -39 -95 -35 -35 -98 -64 -140 -65 -31 0 -33 -2 -33 -36 l0 -36 31 26 c35 29 93 35 124 12 17 -12 24 -12 49 1 37 19 82 10 118 -24 22 -21 31 -24 40 -15 7 7 21 12 32 12 18 0 18 1 1 20 -28 31 -80 43 -177 38 -104 -5 -94 12 11 20 84 5 142 -10 181 -49 17 -17 32 -30 33 -28 2 2 11 17 21 32 9 15 28 33 42 39 16 8 23 17 19 29 -6 17 13 69 25 69 3 0 15 7 26 15 19 14 19 14 -2 15 -34 0 -66 -32 -74 -76 -7 -38 -7 -38 -15 -11 -18 68 54 134 114 104 31 -15 61 -6 61 17 0 7 10 26 22 42 21 26 21 27 3 20 -39 -16 -93 -18 -130 -6 -49 16 -38 24 14 10 51 -13 117 -4 101 15 -7 8 -26 11 -54 8 -44 -5 -82 8 -138 50 -31 23 -111 28 -130 9 -14 -14 -28 -16 -28 -3 0 5 14 14 30 21 42 17 116 7 144 -19 13 -12 44 -28 69 -36 41 -12 49 -12 83 6 41 20 59 17 29 -5 -18 -13 -18 -14 3 -25 17 -9 31 -9 62 0 33 10 47 9 81 -4 41 -16 42 -16 71 8 39 33 113 35 152 4 14 -11 26 -27 26 -34 0 -8 10 -17 23 -21 24 -7 57 -33 57 -44 0 -4 -22 4 -50 18 -27 13 -50 28 -50 32 0 5 -17 11 -38 15 -42 7 -92 -8 -92 -27 0 -9 3 -9 12 0 25 25 108 2 108 -29 0 -6 -10 -3 -22 5 -25 18 -74 21 -83 6 -3 -6 4 -10 18 -10 30 0 36 -6 29 -32 -5 -19 -11 -20 -68 -15 -49 4 -69 1 -93 -14 -25 -15 -30 -16 -35 -3 -3 8 3 23 14 34 20 20 20 20 0 20 -12 0 -28 -13 -40 -32 -18 -29 -20 -30 -20 -10 0 32 36 64 68 60 18 -2 26 -8 24 -18 -2 -8 8 -2 22 13 14 15 33 27 43 28 10 0 13 3 6 5 -6 3 -25 -1 -40 -10 -17 -8 -35 -11 -42 -6 -31 18 -105 -19 -119 -60 -13 -35 -22 -39 -22 -9 0 11 13 34 29 50 16 16 24 29 17 29 -17 0 -42 -29 -50 -57 -5 -14 -15 -23 -27 -23 -10 0 -19 -5 -19 -11 0 -5 5 -7 10 -4 6 3 15 3 22 -1 7 -5 -6 -12 -32 -18 -31 -8 -49 -19 -58 -36 l-13 -25 3 25 c2 14 13 30 28 37 22 11 22 13 5 13 -26 0 -39 -10 -54 -38 -15 -29 -7 -42 28 -42 15 0 32 -5 39 -12 9 -9 13 -7 17 5 3 9 7 24 10 32 8 26 74 48 109 37 l31 -10 -38 -1 c-36 -1 -104 -27 -94 -37 2 -3 16 0 31 6 35 13 87 13 121 0 18 -7 33 -7 46 1 28 15 75 14 104 -1 23 -12 27 -10 64 31 l39 44 -29 3 c-16 2 -29 8 -29 14 0 6 12 8 33 4 17 -3 38 -6 45 -5 41 3 101 1 122 -5 21 -6 33 -1 64 28 20 20 33 36 27 36 -6 0 -11 12 -11 26 0 32 -50 84 -82 84 -18 0 -29 9 -41 35 -21 44 -65 67 -133 67 -61 1 -96 -17 -119 -62 -29 -56 -103 -48 -152 17 -45 59 -102 77 -153 48 l-25 -14 33 -1 c46 0 91 -26 98 -56 5 -17 10 -22 17 -15 7 7 19 2 39 -14 45 -38 91 -33 162 15 49 33 67 40 108 40 45 0 52 -3 103 -55 38 -37 55 -63 55 -80 0 -14 -4 -25 -10 -25 -5 0 -10 14 -10 30 0 23 -6 33 -25 42 -14 6 -25 17 -25 24 0 23 -43 44 -90 44 -30 0 -58 -8 -85 -25 -87 -53 -100 -57 -151 -39 -26 9 -55 14 -65 11 -12 -3 -21 4 -30 25 -18 44 -51 61 -104 56 -24 -3 -45 -3 -47 1 -2 3 -17 16 -35 28 -30 21 -32 22 -30 4 1 -11 5 -17 9 -15 4 3 8 0 8 -5 0 -6 5 -10 12 -8 7 1 12 -2 13 -8 1 -24 17 -33 48 -28 24 4 39 -1 57 -17 20 -18 21 -20 5 -14 -11 5 -38 8 -60 9 -30 1 -47 8 -68 29 -20 20 -34 26 -50 22 -22 -5 -50 5 -48 18 3 19 -1 25 -19 31 -11 3 -28 2 -37 -4 -15 -9 -13 -10 15 -11 35 0 45 -23 15 -34 -10 -3 -25 -9 -33 -12 -8 -3 -4 4 9 15 17 16 19 21 8 21 -9 0 -19 -4 -22 -10 -3 -5 -10 -10 -16 -10 -12 0 -12 33 1 46 7 7 6 11 -5 11 -9 0 -20 -9 -26 -19z m-5 -89 c14 -7 27 -18 30 -25 11 -29 -4 -40 -60 -40 -41 -1 -52 2 -44 10 6 6 32 11 57 10 l46 -1 -23 19 c-16 13 -35 18 -57 16 -33 -4 -45 6 -20 15 21 9 45 7 71 -4z m-212 -70 c20 -13 33 -11 62 12 30 23 36 11 7 -15 -28 -26 -82 -18 -100 15 -9 16 -11 33 -6 45 7 16 9 14 15 -15 5 -18 14 -37 22 -42z m390 11 c58 -58 99 -80 147 -80 28 0 40 -4 35 -11 -8 -14 -74 -4 -118 17 -17 9 -44 32 -61 50 -16 19 -48 41 -70 49 l-40 14 34 1 c26 0 42 -9 73 -40z m622 21 c29 -32 13 -41 -17 -10 -18 18 -23 29 -14 29 8 0 22 -9 31 -19z m-704 -26 c46 -24 36 -35 -10 -13 -22 11 -40 22 -40 24 0 8 22 3 50 -11z m854 -27 c9 -12 16 -28 16 -35 0 -20 -20 -15 -21 5 -1 11 -4 9 -9 -8 -7 -22 -8 -22 -9 -4 -1 11 -4 24 -8 28 -4 3 -8 13 -9 21 -3 23 23 18 40 -7z m-908 -44 c-37 -37 -35 -86 3 -125 16 -16 37 -29 47 -29 13 0 12 5 -10 25 -34 32 -37 97 -4 132 26 27 88 32 112 7 27 -27 18 -36 -13 -13 -26 19 -33 20 -60 10 -57 -24 -61 -108 -6 -133 19 -8 28 -8 40 2 10 8 15 9 15 1 0 -6 -14 -18 -31 -27 -40 -20 -93 -11 -114 19 -41 59 -19 151 39 156 5 1 -3 -11 -18 -25z m89 -40 c-22 -23 -12 -29 18 -10 15 10 31 14 43 9 16 -6 14 -8 -11 -13 -22 -4 -30 -11 -29 -26 0 -16 -5 -20 -23 -16 -13 2 -23 11 -23 19 0 21 19 53 31 53 6 0 3 -7 -6 -16z m-148 -106 c-19 -11 -52 -2 -48 13 2 8 9 33 15 55 l10 41 17 -51 c13 -38 15 -53 6 -58z m678 48 c19 -8 35 -20 35 -26 0 -7 -9 -5 -22 4 -26 18 -100 21 -130 5 -11 -6 -22 -8 -25 -6 -9 9 51 36 80 37 15 0 43 -7 62 -14z"/> <path d="M2648 1642 c-22 -4 -23 -18 -3 -26 8 -3 15 -9 15 -13 0 -10 -73 -9 -89 1 -11 7 -82 -46 -81 -60 0 -4 -17 -9 -37 -11 -70 -7 -104 -68 -68 -121 40 -57 162 -95 238 -74 26 7 35 7 31 0 -4 -6 -1 -9 6 -6 7 2 17 14 21 25 8 21 7 21 -26 7 -63 -26 -137 -15 -182 28 -26 25 -30 70 -8 88 18 15 20 -1 3 -18 -18 -18 5 -56 45 -75 41 -20 97 -22 144 -5 40 14 45 10 34 -28 -6 -23 -13 -29 -34 -27 -30 2 -31 0 -17 -28 14 -25 52 -24 106 2 48 22 61 47 44 79 -7 12 -10 23 -8 24 35 24 58 46 49 46 -8 0 -6 8 4 24 15 22 14 25 -2 41 -16 17 -18 16 -34 -4 -20 -25 -42 -27 -59 -6 -18 22 29 68 72 69 18 1 44 9 58 19 33 23 96 23 109 0 5 -10 13 -14 17 -10 5 5 2 12 -5 17 -8 4 -12 17 -8 29 6 25 -20 30 -29 6 -4 -10 -21 -15 -53 -15 -25 -1 -57 -7 -71 -15 -14 -8 -39 -14 -56 -15 -34 0 -84 -33 -84 -55 0 -16 -47 -55 -66 -55 -17 0 -54 36 -54 52 0 6 8 4 20 -7 26 -24 45 -14 69 35 22 46 17 88 -11 82z m-20 -86 c4 -18 3 -19 -13 -3 -24 24 -42 21 -76 -12 -36 -36 -37 -73 -4 -106 41 -42 155 -26 155 21 0 8 5 12 10 9 6 -3 10 -17 10 -29 0 -13 7 -29 15 -36 36 -30 5 -101 -44 -99 -22 2 -23 2 -5 6 12 2 30 13 40 24 16 18 16 21 -2 58 l-18 38 -31 -18 c-86 -53 -200 17 -165 101 7 17 24 40 38 51 33 25 85 22 90 -5z m-58 -16 c-26 -26 -25 -36 5 -65 30 -30 54 -31 89 -4 20 16 24 17 20 4 -24 -61 -144 -37 -144 29 0 24 23 56 41 56 5 0 0 -9 -11 -20z m187 -68 c12 -2 31 6 43 18 26 26 40 18 16 -9 -40 -44 -116 -20 -116 37 0 26 1 26 18 -8 10 -21 26 -36 39 -38z m-283 41 c3 -4 -8 -12 -26 -17 -28 -9 -34 -17 -36 -45 -2 -20 2 -37 9 -42 8 -4 11 -11 7 -14 -10 -10 -38 25 -38 49 0 46 59 94 84 69z"/> <path d="M799 1570 c26 -22 56 -26 67 -9 10 16 -15 29 -56 29 l-35 -1 24 -19z"/> <path d="M1804 1551 c6 -8 2 -11 -10 -9 -13 2 -24 -7 -34 -29 -8 -18 -28 -38 -43 -44 -15 -6 -32 -19 -37 -28 -6 -13 -18 -16 -44 -13 -29 3 -40 -2 -70 -32 -20 -19 -36 -42 -36 -51 0 -8 -7 -15 -15 -15 -8 0 -19 -8 -24 -19 -11 -20 -5 -21 106 -20 28 0 54 -5 58 -11 3 -5 11 -10 16 -10 6 0 7 5 3 11 -11 18 30 -7 47 -28 13 -17 13 -17 -7 0 -33 28 -37 20 -8 -16 23 -29 31 -33 57 -28 32 7 42 19 52 64 11 55 104 86 153 51 13 -9 30 -13 38 -10 14 5 14 8 0 22 -20 19 -20 28 -1 44 12 10 19 10 27 2 9 -9 8 -12 -6 -12 -22 0 -17 -33 6 -38 24 -5 42 32 28 59 -16 28 -83 24 -88 -6 -6 -30 -22 -43 -22 -17 0 29 34 62 63 62 37 0 67 -27 67 -61 0 -17 -6 -32 -15 -35 -20 -8 -19 -24 1 -24 8 0 28 -13 44 -29 l29 -28 11 31 c6 17 22 42 35 56 23 24 24 27 9 48 -21 30 -34 28 -34 -5 0 -16 -8 -37 -17 -48 -15 -19 -15 -19 -8 5 11 37 9 68 -6 86 -17 21 -84 54 -109 54 -11 0 -20 5 -20 10 0 20 -75 11 -100 -12 -17 -16 -36 -22 -75 -22 -58 -1 -85 -18 -105 -66 -11 -26 -14 -28 -27 -15 -17 17 -56 19 -84 5 -27 -15 -24 -28 6 -22 29 5 75 -21 75 -43 0 -12 -5 -10 -20 5 -22 22 -60 26 -90 10 -18 -9 -18 -8 -8 21 14 39 67 67 100 52 20 -9 28 -5 59 31 34 38 41 41 88 42 34 0 57 6 68 17 15 15 14 16 -9 22 -17 4 -36 1 -54 -11 -27 -18 -27 -18 -15 4 9 16 21 22 46 22 18 0 37 -5 40 -10 4 -6 23 -7 45 -4 28 5 47 2 64 -10 29 -18 46 -21 46 -6 0 21 -63 41 -144 44 -47 2 -90 7 -97 11 -8 6 -10 4 -5 -4z m272 -112 c18 -11 35 -26 38 -35 9 -25 7 -62 -4 -69 -7 -4 -9 2 -5 17 12 46 -63 108 -130 108 -14 0 -24 -3 -22 -7 2 -9 -6 -13 -24 -13 -23 0 12 29 39 32 32 4 65 -6 108 -33z m-150 -19 c8 0 14 -4 14 -10 0 -5 -13 -7 -30 -3 -65 12 -149 -43 -179 -117 -9 -23 -10 -23 -10 -4 -1 26 35 81 70 107 29 21 86 37 107 31 8 -2 20 -4 28 -4z m-106 -73 c0 -2 -9 -14 -20 -27 -11 -13 -20 -29 -20 -35 0 -7 -7 -15 -15 -19 -25 -9 -17 20 14 53 26 28 41 38 41 28z"/> <path d="M7 1464 c-11 -11 -9 -36 3 -29 5 3 10 2 10 -4 0 -5 -5 -13 -10 -16 -15 -9 -12 -25 5 -25 20 0 19 -39 -2 -62 -14 -15 -14 -18 -1 -18 8 0 23 9 33 20 16 18 17 23 5 48 -8 15 -19 42 -25 60 -5 19 -13 30 -18 26z"/> <path d="M2976 1391 c-12 -22 -13 -37 -5 -64 17 -62 29 -53 29 22 0 39 -2 71 -5 71 -2 0 -11 -13 -19 -29z"/> <path d="M1350 1318 c6 -8 6 -16 -2 -25 -8 -10 -6 -19 11 -37 30 -32 38 -89 17 -121 -33 -50 -61 -59 -176 -60 -76 0 -112 -4 -124 -14 -9 -8 -19 -11 -23 -8 -15 16 71 37 152 37 121 0 165 26 165 98 0 16 -9 40 -20 53 l-20 24 5 -40 c9 -71 -37 -105 -145 -105 -103 0 -169 -31 -200 -96 -24 -49 -36 -57 -26 -18 21 81 91 123 220 132 112 9 137 24 135 81 -1 22 -3 27 -6 14 -2 -12 -16 -33 -30 -47 -23 -23 -33 -26 -103 -26 -92 0 -153 -19 -198 -62 -28 -28 -52 -80 -52 -114 0 -18 45 -22 66 -7 10 7 38 13 62 13 35 0 49 -6 75 -31 l31 -31 42 48 c23 27 41 50 39 52 -1 1 -39 3 -83 4 -60 0 -88 -4 -107 -16 -14 -9 -25 -13 -25 -8 0 4 13 16 30 25 24 15 52 18 152 17 68 0 135 0 150 0 15 1 45 -8 68 -20 34 -17 46 -19 79 -10 33 9 48 7 93 -11 29 -11 60 -27 69 -35 13 -12 19 -10 44 16 39 41 85 60 142 60 27 0 54 5 61 12 18 18 15 63 -5 80 -23 20 -53 30 -53 18 0 -5 -7 -7 -15 -4 -17 7 -21 54 -5 54 6 0 10 7 10 15 0 12 -3 12 -20 -2 -11 -10 -20 -23 -20 -30 0 -9 -8 -11 -24 -7 -13 3 -34 1 -45 -6 -16 -8 -26 -8 -42 0 -18 10 -20 9 -17 -7 3 -14 12 -17 38 -16 19 1 29 0 23 -3 -7 -3 -13 -12 -13 -20 0 -7 -12 -21 -26 -30 -24 -16 -26 -16 -47 5 l-22 22 22 5 c13 4 20 10 17 15 -8 13 -48 11 -62 -3 -6 -6 -15 -9 -19 -5 -11 11 13 29 41 30 14 1 26 7 26 14 0 16 -33 25 -63 18 -18 -5 -34 0 -55 15 -20 15 -39 21 -56 18 -33 -7 -34 10 -2 18 23 6 86 -19 86 -34 0 -4 18 -6 39 -4 24 2 53 -3 73 -12 33 -17 33 -17 13 3 -12 12 -39 21 -66 24 -25 3 -60 12 -77 21 -35 18 -65 20 -92 6 -13 -7 -19 -6 -23 5 -4 9 -1 12 9 8 9 -3 14 2 14 17 0 19 -2 21 -15 10 -13 -11 -20 -9 -38 9 -24 22 -43 29 -32 11 3 -5 2 -10 -2 -10 -5 0 -14 5 -21 10 -9 7 -9 7 -2 -2z m64 -34 c9 -8 16 -20 16 -25 0 -15 -17 -10 -24 6 -3 8 -15 15 -26 15 -11 0 -20 5 -20 10 0 16 37 12 54 -6z m39 -78 c19 7 73 -20 86 -43 9 -17 10 -17 16 0 4 9 15 17 24 17 9 0 12 -3 6 -8 -18 -12 -11 -37 11 -40 12 -2 34 -17 48 -33 35 -38 63 -35 94 11 30 45 48 55 78 41 24 -11 34 -51 12 -51 -6 0 -8 3 -5 7 9 9 -12 33 -30 33 -7 0 -23 -15 -34 -34 -35 -60 -89 -64 -132 -10 -10 13 -24 21 -32 17 -41 -15 15 -63 82 -71 35 -4 48 -1 67 17 12 12 26 18 29 14 9 -9 9 -24 0 -21 -5 1 -22 -6 -40 -15 -44 -23 -74 -21 -117 8 -27 18 -36 21 -36 10 0 -8 -5 -15 -10 -15 -7 0 -7 6 0 20 8 15 8 20 -1 20 -7 0 -9 9 -5 26 5 17 3 23 -4 19 -5 -3 -10 -17 -10 -30 0 -28 -43 -65 -75 -65 -13 0 -33 9 -46 21 l-24 21 25 -16 c34 -22 57 -20 85 8 16 16 22 31 18 45 -3 13 -1 21 6 21 7 0 -3 14 -21 30 -18 17 -42 30 -53 29 -20 0 -20 0 0 -8 25 -11 62 -51 47 -51 -7 0 -12 -8 -12 -19 0 -30 -26 -46 -55 -33 -14 7 -25 17 -25 24 0 9 3 9 12 0 7 -7 20 -12 30 -12 26 0 23 36 -4 45 -20 6 -21 8 -5 12 10 3 24 -1 32 -7 12 -10 15 -10 15 0 0 6 -17 18 -39 27 -22 9 -44 26 -50 40 -16 35 -13 41 8 15 11 -13 26 -20 34 -16z m-53 -111 c-12 -19 -26 -35 -32 -35 -5 0 0 12 11 26 12 15 21 34 21 44 0 23 14 36 18 16 2 -9 -6 -32 -18 -51z m498 21 c5 -26 -17 -46 -52 -46 -33 0 -76 24 -76 42 0 6 11 1 24 -11 16 -15 33 -21 52 -19 24 2 29 8 29 31 -1 29 18 32 23 3z"/> <path d="M1027 1280 c-25 -22 -50 -40 -57 -40 -6 0 -8 -5 -5 -10 4 -6 16 -3 32 10 14 11 30 17 35 14 10 -6 -20 -27 -54 -40 -10 -3 -18 -11 -18 -17 0 -6 -8 -3 -17 6 -16 16 -16 19 -3 28 12 9 12 10 -3 5 -10 -3 -27 -6 -38 -6 -22 0 -73 -46 -65 -58 2 -4 -9 -15 -25 -24 -34 -20 -39 -11 -8 15 11 10 18 25 15 33 -3 8 -2 13 3 10 5 -3 15 2 22 12 12 15 12 16 -2 4 -14 -10 -18 -10 -23 3 -3 8 -13 15 -23 15 -15 0 -15 -2 3 -15 20 -17 23 -17 -76 2 -24 4 -24 4 -5 -8 19 -13 19 -13 -5 -19 -14 -3 -35 -21 -47 -39 -17 -25 -23 -29 -23 -16 0 11 12 32 27 48 23 23 24 27 8 21 -11 -4 -26 -14 -32 -22 -11 -14 -13 -14 -13 -1 0 8 6 21 13 29 6 8 2 6 -10 -4 -13 -11 -23 -14 -23 -8 0 21 -75 14 -104 -9 -28 -22 -59 -73 -50 -82 4 -3 -9 -5 -27 -5 -22 1 -38 -6 -51 -22 -10 -12 -21 -21 -23 -18 -11 11 37 57 63 61 22 3 21 4 -9 6 -38 1 -63 -18 -72 -54 -4 -15 -5 -14 -6 7 -1 35 -61 93 -61 59 0 -5 -10 -9 -22 -9 -147 -4 -139 -2 -176 -38 -19 -19 -30 -34 -24 -34 6 0 22 11 36 25 29 29 77 33 97 9 11 -13 9 -14 -14 -9 -37 10 -75 -1 -82 -24 -4 -12 -19 -21 -45 -25 -27 -4 -40 -11 -40 -22 0 -10 5 -14 15 -10 8 3 22 9 30 12 8 3 15 2 15 -3 0 -5 -13 -14 -30 -20 -25 -9 -30 -17 -30 -45 l0 -33 15 30 c17 33 72 75 99 75 11 0 16 5 13 13 -3 8 4 14 17 15 36 3 66 -8 66 -25 0 -14 -2 -14 -20 2 -19 17 -50 15 -50 -4 0 -5 -13 -12 -28 -16 -34 -7 -80 -48 -93 -83 -8 -21 -7 -29 8 -40 16 -11 18 -10 21 7 2 12 24 38 49 58 38 32 54 38 92 38 37 0 51 6 73 28 15 15 32 27 38 27 16 0 12 18 -10 40 -13 13 -33 20 -59 20 -54 0 -60 16 -7 19 45 2 96 -27 96 -55 0 -22 62 -18 83 6 9 11 22 20 28 20 6 0 1 -9 -12 -20 -20 -16 -22 -21 -10 -29 10 -6 21 -5 35 5 11 8 28 14 38 14 13 0 18 8 18 25 0 49 69 89 113 66 21 -11 20 -11 -6 -6 -53 10 -116 -47 -92 -84 11 -18 23 -12 18 8 -6 22 28 61 53 61 14 0 14 -1 0 -16 -9 -8 -16 -25 -17 -37 0 -21 -1 -21 -9 -2 -8 18 -9 17 -9 -8 -1 -36 20 -43 64 -23 19 10 40 14 45 11 6 -4 7 6 4 24 -5 23 -1 35 19 55 15 14 35 26 45 26 11 0 22 7 26 15 3 8 15 15 27 15 21 0 21 -1 -4 -20 -14 -11 -29 -20 -35 -20 -5 0 -21 -9 -36 -21 -39 -31 -33 -89 10 -89 3 0 3 9 -1 19 -6 21 38 81 51 68 4 -4 -2 -15 -15 -23 -16 -12 -22 -23 -18 -40 2 -13 -1 -24 -6 -24 -6 0 3 -15 20 -32 18 -19 34 -49 38 -70 9 -49 41 -58 71 -20 12 15 20 31 16 36 -3 5 -13 -1 -24 -13 -13 -17 -18 -19 -18 -8 0 9 8 22 18 29 9 7 18 28 19 47 3 49 49 119 99 150 24 16 41 30 38 33 -9 9 21 26 51 30 17 2 35 9 40 16 24 30 115 32 115 2 0 -8 -6 -8 -20 0 -23 12 -64 4 -81 -16 -6 -8 -23 -14 -38 -14 -14 0 -33 -5 -41 -11 -11 -8 -6 -9 20 -5 19 2 44 1 55 -4 15 -7 10 -9 -23 -9 -52 -1 -106 -27 -149 -73 -37 -39 -53 -76 -53 -124 0 -27 4 -34 19 -34 15 0 19 9 23 50 10 102 96 163 228 162 41 0 86 4 100 9 33 12 53 45 44 71 -6 20 -7 19 -20 -10 -14 -34 -51 -50 -81 -36 -14 6 -8 9 22 13 34 5 40 10 43 32 3 27 -21 48 -33 28 -4 -5 -11 -7 -16 -3 -5 3 -7 9 -5 12 11 18 -88 3 -115 -17 -47 -35 -55 -23 -14 22 40 42 5 33 -48 -13z m-412 -90 c4 -6 -7 -10 -27 -10 -42 -1 -74 -19 -99 -56 -10 -16 -19 -23 -19 -16 0 21 31 62 59 77 30 17 77 19 86 5z m320 0 c4 -6 -5 -10 -21 -10 -15 0 -36 -7 -46 -17 -16 -15 -18 -15 -18 0 0 29 70 51 85 27z m-80 -57 c-25 -6 -56 -33 -50 -43 2 -4 -2 -16 -10 -26 -14 -18 -14 -18 -15 9 0 35 32 67 68 66 20 -1 22 -2 7 -6z m-587 -60 c2 -13 -1 -23 -7 -23 -6 0 -10 5 -8 12 1 6 -9 18 -23 25 l-25 14 30 -3 c22 -2 31 -9 33 -25z m578 -4 c-21 -16 -26 -28 -24 -55 1 -23 -4 -40 -17 -52 -18 -17 -18 -16 -2 9 17 29 12 45 -10 28 -9 -9 -13 -8 -13 0 0 6 5 11 10 11 6 0 10 6 10 14 0 20 39 66 57 66 11 0 7 -7 -11 -21z"/> <path d="M2078 1227 c14 -15 22 -36 22 -60 0 -47 -15 -49 -16 -2 -1 43 -23 68 -64 71 -37 3 -40 -14 -3 -18 28 -3 58 -43 46 -61 -3 -5 -11 2 -17 15 -8 16 -21 23 -43 24 -18 1 -31 -3 -30 -9 3 -15 -29 -16 -57 -1 -18 9 -34 10 -49 4 -21 -8 -20 -9 6 -9 63 -2 103 -92 55 -125 l-21 -15 24 -20 c24 -19 24 -19 29 2 7 26 50 31 58 7 4 -13 3 -13 -11 -2 -21 18 -37 7 -37 -26 0 -27 20 -70 20 -44 0 6 9 12 20 12 12 0 32 11 45 25 14 13 25 20 25 15 0 -6 -9 -19 -19 -29 -19 -19 -18 -19 43 -49 l61 -30 81 21 c71 18 86 19 124 8 32 -9 45 -20 53 -42 6 -16 18 -29 27 -29 18 0 84 -39 77 -46 -2 -3 -24 0 -48 5 -32 7 -51 6 -74 -4 -16 -7 -52 -15 -80 -18 l-50 -5 25 20 c16 13 33 18 52 14 33 -7 46 10 24 32 -22 23 -107 19 -179 -8 -72 -27 -88 -18 -21 12 66 30 191 32 223 4 18 -16 21 -17 21 -3 0 8 -12 25 -26 36 -33 26 -89 27 -164 5 -49 -15 -57 -14 -107 1 -47 15 -59 15 -81 4 -15 -7 -30 -15 -34 -17 -21 -10 -5 16 17 28 14 7 25 17 25 22 0 13 -34 9 -58 -8 -17 -12 -22 -12 -22 -2 -1 16 -28 48 -60 71 -29 20 -108 23 -134 4 -16 -12 -14 -13 18 -9 20 2 47 1 61 -2 37 -9 92 -63 105 -102 18 -53 6 -51 -21 3 -37 74 -114 107 -183 78 -15 -7 -17 -5 -11 6 5 8 -3 5 -16 -7 -38 -33 -49 -37 -67 -22 -22 19 -101 48 -129 48 -12 0 -33 -5 -46 -11 -20 -9 -30 -8 -51 6 -15 10 -26 13 -26 6 0 -7 -8 -8 -26 -1 -17 7 -39 7 -65 0 -48 -13 -51 -23 -5 -14 23 4 45 1 65 -9 19 -9 31 -11 33 -5 3 7 16 5 35 -5 27 -15 32 -15 43 -2 16 19 61 19 86 0 23 -17 14 -19 -19 -4 -29 13 -81 -6 -56 -22 15 -9 10 -12 -46 -24 -16 -3 -49 -16 -73 -28 -37 -18 -45 -19 -52 -7 -15 24 -12 28 18 23 26 -4 27 -4 7 12 -27 22 -100 15 -127 -13 -25 -24 -16 -47 12 -32 25 13 80 13 80 -1 0 -5 -8 -9 -17 -8 -39 3 -60 -2 -81 -21 -38 -35 -28 -52 16 -27 26 14 44 18 58 12 16 -7 13 -9 -19 -15 -23 -4 -52 -20 -72 -40 -19 -19 -35 -32 -35 -29 0 2 4 19 10 38 11 38 -1 71 -27 71 -9 0 -21 7 -27 16 -14 18 -78 22 -84 6 -2 -7 -19 -12 -38 -12 -26 0 -37 -5 -43 -22 -5 -14 -10 -17 -15 -10 -14 23 13 52 49 52 18 0 37 5 40 10 10 15 81 12 95 -5 15 -18 71 -47 78 -40 8 7 -29 45 -43 45 -7 0 -15 7 -18 15 -4 8 -15 12 -29 10 -13 -3 -59 -8 -103 -12 -45 -3 -86 -12 -93 -20 -11 -11 -11 -13 2 -13 9 0 16 -4 16 -9 0 -14 -18 -23 -24 -12 -3 5 -15 7 -26 4 -11 -3 -20 0 -20 6 0 6 5 11 10 11 6 0 10 6 10 13 0 25 -30 14 -36 -12 -3 -14 -7 -32 -10 -38 -7 -24 11 -48 36 -48 36 0 41 -42 6 -51 -14 -3 -30 -3 -35 1 -6 3 -16 -6 -21 -20 -13 -35 -15 -32 24 -45 40 -13 97 -1 127 26 21 19 25 60 7 67 -7 2 -10 8 -5 13 4 4 15 0 24 -9 35 -35 -32 -117 -97 -117 -53 0 -110 -90 -110 -175 0 -28 -4 -44 -10 -40 -29 18 0 137 44 181 l31 31 -26 15 c-22 13 -29 13 -44 2 -30 -22 -125 -16 -125 7 0 5 12 4 27 -2 69 -26 132 30 107 95 -10 27 -19 18 -19 -21 0 -35 -3 -39 -39 -51 -34 -11 -41 -10 -57 4 -10 9 -18 27 -17 39 3 29 25 22 24 -7 -1 -30 19 -33 31 -5 8 16 8 28 1 38 -8 11 -9 10 -4 -4 7 -21 5 -20 -41 8 -26 16 -34 29 -39 62 -7 45 -15 56 -54 68 -22 7 -23 6 -8 -9 9 -9 22 -16 29 -16 10 0 10 -3 1 -12 -9 -9 -8 -16 5 -30 16 -18 34 -93 35 -151 1 -29 -36 -77 -59 -77 -15 0 -18 -16 -4 -24 5 -3 22 -1 39 5 76 26 159 -71 122 -142 -12 -22 -15 -21 70 -23 102 -3 185 -59 205 -139 6 -22 13 -27 39 -27 26 0 34 5 43 30 16 42 68 72 120 68 30 -2 44 1 52 14 6 10 27 26 47 36 l37 19 -27 7 c-34 8 -77 -11 -93 -44 -12 -24 -13 -25 -13 -2 0 24 32 62 54 62 7 0 16 9 19 20 3 11 12 23 21 26 24 9 123 -24 130 -43 9 -22 1 -26 -14 -8 -7 8 -18 15 -25 15 -7 0 -25 6 -41 14 -19 11 -33 12 -46 5 -24 -13 -23 -29 2 -29 12 0 31 -6 43 -14 12 -8 38 -17 58 -20 31 -6 37 -3 47 19 10 21 9 32 -3 55 -17 33 -35 40 -35 14 0 -12 -9 -8 -32 15 -17 17 -34 28 -37 25 -3 -4 0 -9 7 -11 6 -3 12 -11 12 -19 0 -12 -4 -12 -24 1 -15 10 -33 14 -50 9 -28 -7 -51 -38 -41 -54 4 -6 -6 -10 -22 -10 -35 -1 -88 -51 -79 -76 5 -14 4 -15 -9 -4 -8 7 -15 18 -15 25 0 16 75 75 95 75 9 0 14 4 11 9 -4 5 8 21 25 35 34 29 23 35 -16 10 -16 -10 -34 -14 -51 -10 -30 8 -54 -8 -54 -34 0 -10 -18 -37 -41 -61 -32 -36 -39 -50 -37 -76 2 -17 0 -29 -4 -27 -15 9 -9 84 7 90 8 4 15 12 15 20 0 8 9 19 20 26 11 7 20 23 20 36 0 42 77 92 143 92 42 0 -14 90 -76 121 -50 26 -153 23 -169 -4 -5 -9 -35 -35 -68 -57 -132 -90 -136 -160 -11 -222 71 -36 111 -82 111 -127 0 -23 -3 -21 -19 15 -24 53 -54 80 -116 108 -58 26 -92 76 -81 119 9 37 60 93 113 123 73 44 95 98 51 128 -18 13 -19 16 -5 16 20 0 51 -44 44 -63 -4 -10 2 -13 19 -9 30 6 31 26 2 40 -23 11 -23 11 -2 11 22 1 48 -21 38 -31 -3 -4 14 -9 38 -13 81 -14 143 -62 154 -121 5 -27 11 -33 41 -37 19 -3 42 -12 50 -19 9 -7 30 -17 47 -23 17 -5 35 -20 41 -33 11 -26 21 -28 41 -8 7 8 19 17 26 20 9 3 8 8 -5 16 -32 20 -49 75 -37 119 16 59 51 86 116 87 30 0 60 6 66 12 7 7 17 12 24 12 15 0 39 29 31 37 -4 3 -22 7 -41 8 -19 1 -44 12 -57 24 -32 29 -86 28 -134 -4 -42 -29 -43 -12 -1 19 38 29 116 29 148 0 31 -29 101 -39 119 -18 18 22 -5 35 -58 32 -25 -2 -45 2 -47 8 -9 24 -78 46 -125 41 -41 -5 -44 -4 -26 9 10 8 32 14 47 14 32 0 108 -35 108 -50 0 -5 16 -6 36 -3 26 4 43 1 62 -13 20 -14 37 -18 62 -14 l35 6 -44 23 c-31 16 -56 22 -87 19 -52 -4 -59 7 -11 16 41 8 94 -9 128 -40 50 -47 67 -24 19 25 -42 42 -115 52 -185 27 -19 -7 -19 -7 -1 8 31 25 96 30 144 11 42 -17 82 -56 82 -81 0 -7 14 -26 30 -43 29 -29 31 -29 65 -15 52 21 80 17 114 -16 22 -23 38 -30 61 -28 17 1 34 6 36 10 3 4 23 8 44 8 29 0 48 -8 73 -29 28 -25 39 -29 74 -24 22 3 50 0 62 -6 17 -10 26 -8 50 10 22 16 38 20 59 16 21 -4 32 -2 36 8 8 21 65 47 92 42 30 -5 57 30 42 57 -6 10 -8 31 -6 47 4 23 2 26 -9 18 -18 -15 -16 -34 4 -66 l18 -26 -29 18 c-27 18 -29 18 -41 1 -11 -14 -22 -16 -73 -10 -40 4 -62 3 -66 -5 -10 -15 -26 -14 -26 2 0 18 39 53 73 66 19 7 27 18 27 34 0 14 9 36 20 50 22 28 77 52 82 35 4 -11 55 9 78 31 13 13 11 13 -15 7 -22 -5 -26 -4 -15 4 20 13 82 2 98 -18 20 -26 14 -37 -8 -14 -23 24 -35 27 -45 12 -4 -6 -23 -17 -43 -26 -45 -18 -69 -40 -89 -78 -14 -27 -14 -31 3 -43 16 -11 19 -10 29 15 20 46 83 87 135 87 35 0 51 7 74 28 16 15 33 27 37 27 5 0 9 6 9 14 0 23 -41 46 -82 46 -51 0 -56 16 -6 19 45 2 84 -18 98 -52 7 -19 9 -16 9 15 1 29 -4 41 -24 54 -13 8 -30 12 -36 8 -16 -9 -62 -15 -117 -15 -36 1 -49 -5 -76 -32 -18 -17 -31 -38 -29 -45 3 -7 -1 -10 -11 -6 -9 3 -13 11 -9 18 24 38 58 69 86 78 16 4 11 6 -19 7 -36 1 -46 -4 -73 -34 -17 -20 -31 -46 -31 -59 0 -23 -28 -56 -48 -56 -17 0 -42 -41 -42 -70 0 -14 -7 -34 -15 -44 -14 -19 -15 -19 -15 8 0 49 -39 104 -94 131 -59 30 -158 34 -226 10 -23 -8 -52 -15 -64 -15 -26 1 109 50 138 50 20 1 20 1 3 11 -10 6 -30 8 -44 4 -17 -4 -29 -1 -37 10 -7 9 -27 18 -46 19 -19 2 -40 4 -47 5 -8 1 -10 13 -6 36 5 29 1 41 -17 60 -13 14 -28 25 -33 25 -6 0 -1 -10 11 -23z m-46 -74 c10 -9 18 -26 18 -37 -1 -18 -3 -17 -16 8 -13 23 -21 27 -45 24 -28 -4 -36 1 -22 15 12 12 46 7 65 -10z m126 -49 c12 -8 22 -21 22 -28 0 -15 -24 -28 -34 -19 -10 10 -7 25 4 18 6 -3 10 -2 10 3 0 12 -24 22 -50 22 -10 0 -28 -9 -41 -21 -13 -11 -19 -18 -14 -16 6 3 16 -2 24 -11 13 -13 12 -14 -12 -10 -22 4 -26 1 -29 -21 -2 -20 -9 -27 -30 -29 -16 -2 -28 1 -28 6 0 5 10 8 23 8 15 -1 23 5 25 21 5 31 -15 63 -38 63 -11 0 -20 5 -20 10 0 18 39 11 52 -9 12 -19 13 -19 41 5 33 28 63 31 95 8z m693 0 c11 -13 9 -14 -14 -9 -38 10 -75 -2 -82 -25 -3 -11 -11 -20 -16 -20 -13 0 17 57 33 63 27 11 66 6 79 -9z m-706 -98 c17 -3 55 1 85 9 76 20 126 19 177 -6 51 -25 88 -84 75 -119 -8 -21 -8 -21 -21 3 -15 28 -70 62 -117 71 -18 4 -61 0 -98 -8 -81 -19 -117 -20 -139 -3 -15 10 -8 12 45 13 35 1 93 5 130 9 80 9 125 -4 170 -48 l32 -32 -19 34 c-35 60 -67 76 -148 75 -40 0 -97 -4 -128 -8 -57 -9 -99 3 -99 26 0 7 4 7 13 0 6 -5 26 -12 42 -16z m-634 -113 c34 -7 33 -8 -16 -14 -27 -3 -59 -10 -69 -14 -14 -6 -17 -5 -12 4 7 11 40 29 57 30 4 1 22 -2 40 -6z m589 -13 c11 -7 6 -10 -20 -10 -20 0 -46 -7 -58 -16 -12 -8 -22 -11 -22 -5 0 12 48 40 70 40 8 1 22 -4 30 -9z m-985 -40 c10 -11 15 -23 11 -27 -4 -5 -12 0 -17 10 -12 21 -49 23 -49 2 0 -8 8 -15 19 -15 10 0 25 -7 32 -16 12 -15 15 -14 31 6 24 30 35 18 14 -15 -20 -30 -27 -31 -51 -5 -10 11 -26 20 -36 20 -10 0 -21 5 -24 10 -3 6 -17 10 -31 10 -13 0 -24 5 -24 11 0 7 12 10 28 7 16 -2 34 2 41 9 17 18 35 16 56 -7z m1215 10 c11 -7 2 -10 -31 -10 -33 0 -57 -7 -83 -25 -44 -30 -70 -34 -33 -5 54 43 117 60 147 40z m-886 -9 c3 -5 -11 -9 -31 -9 -29 0 -42 -6 -60 -28 -12 -16 -25 -25 -29 -22 -3 4 7 21 24 38 30 30 84 42 96 21z m-507 -28 c6 -8 16 -13 20 -10 5 3 15 2 23 -4 12 -7 12 -9 -3 -9 -14 0 -17 -5 -12 -20 14 -44 -51 -98 -102 -85 -34 8 -28 25 7 19 38 -8 80 18 80 49 -1 33 -36 70 -60 64 -22 -6 -28 8 -7 16 17 6 40 -3 54 -20z m537 -9 c4 -9 0 -24 -9 -34 -19 -21 -19 -59 0 -66 8 -4 15 -13 15 -21 0 -10 -6 -13 -16 -9 -9 3 -24 6 -35 6 -19 0 -59 33 -59 48 0 5 10 14 23 20 l22 11 -22 0 c-48 2 -78 -61 -53 -110 14 -25 61 -48 104 -51 44 -4 48 -18 6 -18 -39 0 -104 33 -124 62 -35 50 -9 114 52 133 13 4 33 16 43 26 23 23 45 24 53 3z m1166 6 c11 -7 2 -10 -33 -10 -26 0 -61 -7 -77 -15 -18 -9 -31 -11 -35 -5 -11 17 -82 12 -89 -6 -4 -12 -2 -15 9 -10 8 3 25 1 37 -4 22 -8 22 -9 -4 -9 -14 -1 -33 -3 -40 -6 -17 -7 -22 33 -6 52 12 15 84 18 93 3 4 -6 16 -5 33 5 31 16 90 19 112 5z m-949 -27 c8 -8 -1 -8 -36 -1 -67 14 -113 3 -152 -39 -31 -32 -47 -27 -20 7 32 41 61 51 129 48 37 -2 73 -9 79 -15z m-385 -23 c-3 -40 -21 -58 -44 -43 -9 6 -16 18 -16 27 2 13 -1 14 -12 5 -10 -8 -14 -8 -14 -1 0 13 48 41 72 42 12 0 15 -8 14 -30z m59 -59 c-8 -27 19 -45 61 -38 30 5 34 4 24 -8 -17 -20 -59 -19 -82 2 -18 16 -24 44 -11 56 11 12 15 8 8 -12z m-173 -12 c9 -5 19 -18 23 -29 3 -11 11 -19 18 -17 6 1 13 -6 15 -15 2 -11 -3 -18 -13 -18 -19 0 -60 -25 -97 -58 -28 -26 -29 -26 -92 12 l-38 24 41 18 c23 10 41 24 41 31 0 23 38 36 72 24 43 -15 47 -13 19 9 -38 32 -77 26 -100 -17 -6 -13 -18 -23 -27 -23 -25 0 -92 -38 -108 -62 -20 -28 -21 -72 -2 -87 12 -10 13 -6 9 27 -3 23 -1 42 5 46 7 4 9 -5 5 -28 -4 -28 -1 -36 17 -46 31 -17 54 5 26 25 -24 18 -12 35 24 35 46 0 68 -61 34 -94 -28 -29 -82 -20 -121 19 -30 30 -35 40 -29 68 7 38 64 93 106 102 16 3 36 17 45 31 27 41 74 50 127 23z m-376 -37 c-28 -46 -78 -113 -73 -99 4 10 7 25 7 32 0 16 48 75 61 75 6 0 8 -4 5 -8z m-121 -37 c48 -13 49 -14 14 -14 -19 -1 -44 6 -55 14 -23 18 -22 18 41 0z"/> <path d="M1021 511 c20 -30 4 -54 -31 -47 -37 7 -39 -1 -3 -15 58 -22 104 21 67 62 -23 26 -49 26 -33 0z"/> <path d="M32 1136 c-29 -32 -33 -43 -14 -41 9 0 30 13 45 27 16 15 41 29 55 31 15 2 6 4 -20 4 -35 0 -52 -5 -66 -21z"/> <path d="M597 1014 c-4 -4 -7 -16 -7 -26 0 -14 8 -18 39 -18 32 0 44 -6 65 -31 14 -17 26 -41 26 -53 0 -19 4 -22 24 -19 14 3 39 -2 55 -10 30 -15 31 -15 31 7 0 17 -6 22 -31 24 -41 3 -48 8 -42 31 5 21 -20 76 -39 87 -10 6 -11 4 0 -7 21 -23 14 -41 -8 -19 -12 12 -33 20 -53 20 -18 0 -38 5 -43 10 -6 6 -13 7 -17 4z"/> <path d="M2670 979 c-19 -19 -30 -40 -28 -52 5 -31 25 -31 33 0 3 15 18 40 33 56 38 40 3 36 -38 -4z"/> <path d="M1207 950 c-32 -33 -35 -40 -21 -48 12 -6 22 -3 39 14 34 34 87 41 130 16 l35 -21 -3 22 c-1 12 -6 25 -12 29 -15 11 -83 10 -106 -2 -13 -7 -19 -7 -19 0 0 5 5 10 11 10 5 0 7 5 4 10 -10 16 -18 12 -58 -30z"/> <path d="M545 945 c0 -37 9 -46 19 -19 3 9 11 12 18 8 7 -4 2 5 -11 19 -14 15 -25 27 -25 27 -1 0 -1 -16 -1 -35z"/> <path d="M72 918 c-16 -16 -15 -34 5 -66 16 -25 16 -26 1 -14 -15 12 -22 12 -48 1 -16 -8 -30 -22 -30 -31 0 -14 7 -16 37 -11 52 8 68 24 53 53 -7 12 -10 35 -8 51 3 16 4 29 3 29 0 0 -6 -5 -13 -12z"/> <path d="M330 915 c0 -17 -16 -20 -25 -5 -7 11 -37 -22 -48 -52 -15 -41 63 -88 145 -88 64 0 103 74 60 113 -19 18 -44 22 -55 10 -4 -3 3 -11 16 -17 51 -26 18 -86 -48 -86 -38 0 -91 32 -100 60 -9 29 19 60 37 42 9 -9 9 -15 0 -24 -9 -9 -12 -9 -12 2 0 7 -3 11 -6 8 -11 -12 15 -45 45 -57 43 -18 85 -11 89 15 2 12 -4 24 -12 27 -10 4 -13 1 -10 -8 7 -19 -30 -29 -54 -14 -15 9 -18 20 -15 50 3 22 2 39 -1 39 -3 0 -6 -7 -6 -15z"/> <path d="M620 915 c0 -3 9 -14 20 -25 11 -11 20 -31 20 -44 0 -41 11 -56 40 -56 38 0 53 -22 45 -62 l-7 -33 21 19 c26 23 26 27 1 53 -17 18 -17 22 -4 27 9 4 14 13 10 21 -3 8 -2 15 2 15 10 0 52 -56 52 -69 0 -5 5 -13 12 -17 21 -13 -1 60 -23 79 -13 10 -38 17 -65 17 -36 0 -42 3 -37 17 5 13 2 15 -14 11 -15 -4 -23 0 -26 12 -4 16 -47 48 -47 35z m70 -83 c0 -4 14 -7 32 -7 17 0 33 -6 36 -13 3 -10 -1 -12 -14 -5 -11 5 -31 8 -46 7 -18 -1 -28 4 -28 12 0 8 5 14 10 14 6 0 10 -3 10 -8z"/> <path d="M2938 895 c-25 -33 -22 -62 7 -90 24 -25 55 -33 55 -15 0 6 -4 10 -10 10 -37 0 -67 84 -34 97 19 7 39 -11 29 -27 -6 -9 -10 -9 -16 1 -7 11 -9 9 -9 -6 0 -21 17 -45 32 -45 16 0 8 73 -9 86 -24 18 -25 17 -45 -11z"/> <path d="M484 883 c21 -43 20 -65 -4 -96 -27 -34 -78 -43 -135 -25 -24 8 -46 12 -47 7 -3 -8 -23 -12 -50 -10 -21 1 -24 30 -6 52 7 7 4 6 -7 -3 -15 -15 -17 -23 -9 -45 8 -24 15 -28 44 -26 64 3 119 -8 142 -28 l23 -21 -25 16 c-15 10 -47 16 -86 16 -73 0 -138 -30 -171 -80 -14 -19 -23 -26 -23 -17 0 24 49 76 84 91 31 12 31 13 9 25 -26 13 -31 58 -10 80 10 11 9 13 -6 7 -10 -3 -21 -6 -23 -6 -2 0 -4 -7 -4 -15 0 -25 -14 -17 -29 18 -18 39 -41 65 -41 45 0 -7 5 -20 10 -28 13 -21 -36 -70 -70 -70 -28 0 -50 -16 -50 -36 0 -18 70 -5 94 18 11 10 30 18 42 18 12 0 30 3 40 7 12 4 15 3 10 -5 -4 -7 -18 -12 -31 -12 -13 0 -36 -11 -52 -24 -16 -14 -45 -26 -63 -28 -25 -2 -36 -9 -38 -22 -3 -15 0 -17 14 -11 11 4 33 9 49 11 28 4 28 3 -4 -7 l-35 -11 40 -18 c23 -9 50 -29 61 -43 17 -22 23 -24 37 -14 9 7 22 23 29 36 19 38 62 63 116 69 67 6 95 -2 109 -34 18 -39 -3 -78 -45 -82 -45 -4 -63 28 -31 58 12 11 16 20 10 20 -20 0 -79 -27 -86 -39 -9 -14 50 -75 64 -66 6 3 24 0 40 -9 27 -13 30 -13 30 1 0 8 14 28 30 45 26 26 36 29 73 26 23 -3 49 -8 58 -12 25 -11 79 48 79 86 0 38 -21 33 -32 -8 -8 -29 -32 -54 -52 -54 -6 0 0 9 13 19 13 10 25 28 26 39 0 11 6 26 12 34 23 27 20 77 -7 109 -52 62 -61 71 -67 65 -4 -4 -1 -21 5 -39 17 -48 15 -81 -8 -110 -22 -28 -68 -43 -83 -28 -8 8 -3 11 14 11 36 0 69 39 69 81 0 24 -9 44 -31 69 l-31 35 16 -32z m91 -43 c8 -16 15 -48 15 -71 0 -33 -6 -47 -34 -75 -23 -23 -43 -34 -62 -34 -28 0 -27 1 12 19 27 12 46 30 57 54 21 44 21 54 -2 100 -10 20 -15 37 -10 37 5 0 15 -13 24 -30z m-413 -111 c-23 -7 -38 -20 -47 -42 -12 -27 -14 -29 -15 -9 0 31 34 62 68 61 26 -1 26 -1 -6 -10z"/> <path d="M2786 847 c9 -28 -41 -77 -79 -77 -21 0 -40 -10 -63 -36 -43 -45 -44 -64 -2 -29 23 19 40 26 60 23 20 -3 32 1 38 13 16 28 110 53 110 29 0 -5 -11 -10 -25 -10 -30 0 -85 -26 -85 -40 0 -6 -15 -10 -34 -10 -23 0 -45 -9 -63 -25 -32 -28 -20 -32 36 -9 22 9 48 14 58 11 12 -3 9 -5 -9 -6 -36 -1 -45 -19 -14 -27 14 -3 38 -21 54 -38 23 -26 32 -31 48 -24 11 5 25 22 31 38 14 37 53 61 108 68 55 6 60 22 7 22 -50 0 -131 -42 -159 -82 -28 -41 -30 -25 -3 20 23 38 80 67 153 77 58 9 59 31 1 27 -21 -1 -46 2 -54 8 -13 9 -13 12 3 24 23 18 22 29 -3 16 -22 -12 -26 -40 -8 -58 8 -8 8 -12 1 -12 -23 0 -36 29 -24 56 14 31 14 31 -5 38 -8 3 -12 2 -9 -4 3 -6 1 -10 -5 -10 -6 0 -9 -4 -5 -9 3 -5 1 -12 -4 -15 -5 -3 -12 2 -16 12 -7 16 -8 15 -16 -3 -5 -13 -6 -6 -3 21 5 33 3 41 -10 41 -12 0 -14 -6 -10 -20z m24 -125 c-20 -10 -37 -27 -41 -42 l-7 -25 -1 24 c-1 32 26 61 58 61 25 0 24 -1 -9 -18z"/> <path d="M1761 755 c-1 -10 -56 -48 -73 -51 -5 -1 -10 -3 -13 -4 -3 -1 -8 -3 -12 -4 -43 -9 -71 -20 -85 -33 -9 -8 -21 -12 -27 -9 -22 14 -25 -47 -4 -84 17 -28 28 -36 55 -38 31 -3 37 1 48 27 7 17 16 31 21 31 5 0 2 -14 -7 -31 -13 -26 -14 -33 -2 -40 22 -14 28 -10 28 19 0 33 35 93 72 121 34 27 101 51 142 51 24 0 28 3 16 10 -8 6 -27 7 -42 4 -15 -3 -33 -2 -40 2 -7 5 -25 7 -40 5 -18 -2 -28 3 -31 16 -3 10 -5 13 -6 8z m64 -44 c3 -6 -9 -7 -30 -4 -32 5 -39 2 -74 -36 -21 -22 -44 -41 -52 -41 -25 0 -41 -17 -49 -51 l-8 -34 -1 33 c-1 36 28 72 59 72 11 0 20 5 20 10 0 6 11 22 25 35 17 18 35 25 64 25 22 0 42 -4 46 -9z m-155 -41 c0 -5 -11 -10 -23 -10 -38 0 -61 -33 -54 -77 6 -35 5 -36 -8 -19 -22 29 -18 64 10 91 24 25 75 35 75 15z"/> <path d="M2025 721 c6 -11 2 -13 -19 -7 -16 4 -33 3 -39 -2 -7 -5 -34 -12 -62 -16 -101 -13 -177 -72 -195 -153 -8 -31 -5 -41 16 -66 13 -16 24 -33 24 -39 0 -19 41 25 55 59 8 20 32 44 62 62 42 27 57 31 118 30 39 0 79 -4 90 -8 31 -12 49 -3 33 18 -10 13 -9 13 8 -1 11 -10 26 -18 32 -18 19 0 72 -51 72 -70 0 -24 87 -87 136 -98 31 -8 35 -11 21 -17 -13 -5 -38 2 -78 20 -32 16 -62 26 -66 22 -3 -4 1 -7 9 -7 16 0 72 -39 65 -46 -2 -2 -21 5 -42 16 -21 11 -48 17 -60 14 -26 -6 -60 28 -51 52 6 14 0 16 -45 12 -45 -5 -68 -18 -69 -39 0 -13 33 -20 44 -9 14 14 59 13 74 -2 19 -19 14 -30 -7 -18 -25 13 -71 13 -71 0 0 -17 48 -53 76 -56 32 -4 64 -31 64 -56 0 -10 5 -18 10 -18 14 0 12 33 -3 53 -7 10 -30 24 -52 32 -40 14 -40 14 -9 15 42 0 86 -41 84 -78 -1 -15 1 -37 5 -50 7 -22 9 -22 26 -6 11 9 19 23 19 30 0 16 57 64 76 64 8 0 14 10 14 26 0 14 4 34 10 44 15 28 71 64 95 62 17 -1 23 7 33 43 7 25 21 54 32 65 11 11 15 20 10 20 -7 0 -7 7 0 20 16 31 3 43 -40 36 -26 -4 -40 -2 -43 7 -3 7 -6 5 -6 -5 -1 -11 -12 -20 -28 -24 -43 -9 -83 -26 -83 -34 0 -4 -20 -5 -44 -3 -40 5 -46 3 -62 -22 -16 -24 -16 -30 -3 -54 8 -14 36 -37 63 -50 27 -14 45 -26 39 -28 -22 -8 -112 47 -128 77 -21 40 -19 51 12 77 28 25 29 25 88 29 48 3 126 21 105 24 -8 1 -27 1 -41 0 -20 -1 -29 5 -39 29 -7 17 -16 28 -21 25 -5 -3 -3 -14 3 -24 17 -27 1 -38 -18 -12 -15 21 -42 32 -29 12 9 -14 -8 -12 -41 5 -16 8 -37 15 -46 15 -23 0 -68 -21 -68 -32 0 -5 -18 2 -39 14 -33 19 -38 25 -28 38 11 13 10 13 -5 1 -15 -11 -21 -11 -35 0 -14 12 -16 12 -8 0z m64 -48 c14 -11 28 -29 29 -39 4 -17 1 -16 -18 4 -12 13 -33 27 -47 33 -30 11 -93 12 -93 1 0 -4 -16 -8 -35 -9 -78 -2 -152 -60 -181 -142 l-13 -36 -1 31 c-1 67 110 163 190 164 14 0 32 5 40 11 22 15 98 4 129 -18z m162 -3 c10 -6 19 -15 19 -21 0 -6 -7 -6 -19 1 -34 18 -82 12 -88 -10 -6 -22 -18 -26 -29 -8 -11 17 33 48 68 48 16 0 38 -5 49 -10z m272 -39 c-20 -16 -21 -21 -8 -31 17 -14 20 -56 6 -64 -5 -4 -7 3 -4 14 7 27 -11 46 -49 54 -39 8 -68 -15 -68 -54 0 -31 27 -48 44 -29 8 9 8 10 -1 5 -7 -4 -16 2 -22 12 -13 24 17 56 43 46 23 -9 40 -44 28 -56 -6 -6 -12 0 -16 16 -3 14 -13 26 -21 26 -18 0 -19 -5 -3 -30 17 -26 -2 -45 -36 -36 -36 9 -45 50 -18 84 16 22 27 27 57 25 21 -2 35 0 32 4 -4 3 3 12 16 19 34 18 45 16 20 -5z m-455 -15 c16 -16 15 -17 -11 -7 -40 16 -129 13 -170 -4 -51 -21 -97 -64 -118 -110 -10 -22 -19 -32 -19 -22 0 32 31 87 64 110 77 55 215 73 254 33z m127 -1 c-34 -28 -42 -26 -23 4 7 12 22 21 33 21 18 -1 16 -4 -10 -25z m132 -43 c-23 -25 -21 -38 5 -56 l22 -16 -21 0 c-21 0 -43 25 -43 49 0 13 29 41 42 41 6 0 4 -8 -5 -18z m83 -89 l35 -13 -35 3 c-27 1 -38 8 -48 30 -7 15 -10 33 -5 40 5 8 9 2 13 -18 4 -23 13 -33 40 -42z m-99 -134 c-19 -8 -21 -12 -11 -24 7 -9 8 -15 2 -15 -5 0 -17 11 -26 25 l-16 25 37 -1 c34 0 36 -1 14 -10z"/> <path d="M2527 712 c-23 -26 -22 -27 22 -28 32 -1 41 3 50 22 10 23 9 24 -23 24 -19 0 -40 -8 -49 -18z"/> <path d="M263 671 c-23 -11 -46 -28 -52 -39 -9 -17 -7 -20 14 -24 14 -3 25 -1 25 4 0 5 11 20 25 33 35 36 105 34 113 -2 1 -8 -8 -13 -24 -13 -19 0 -25 -5 -22 -17 5 -27 44 -28 58 -3 36 68 -44 103 -137 61z"/> <path d="M2924 676 c-17 -8 -41 -24 -53 -37 l-22 -24 23 -6 c18 -4 27 1 40 22 11 19 29 30 53 35 19 3 35 10 35 15 0 13 -40 10 -76 -5z"/> <path d="M2954 646 c-17 -8 -33 -20 -36 -27 -7 -18 44 -65 66 -61 19 4 20 15 4 42 -10 15 -10 22 0 32 13 13 16 28 5 28 -5 -1 -22 -7 -39 -14z"/> <path d="M25 570 c11 -12 16 -29 13 -45 -5 -25 -5 -25 13 -9 24 22 24 29 -1 54 -26 26 -49 26 -25 0z"/> <path d="M2671 569 c12 -12 19 -29 16 -40 -6 -23 18 -26 27 -3 7 19 -8 50 -30 58 -29 11 -34 6 -13 -15z"/> <path d="M2728 560 c8 -54 -62 -107 -98 -75 -11 10 -20 12 -24 6 -7 -10 30 -41 49 -41 6 0 26 11 45 25 19 14 44 25 56 25 13 0 40 12 61 26 42 28 82 27 115 -3 16 -14 18 -14 18 -1 0 22 -23 38 -64 45 -25 4 -36 2 -36 -7 0 -7 -7 -10 -16 -6 -10 4 -25 -3 -40 -20 -29 -31 -49 -27 -49 9 0 14 -5 31 -11 37 -8 8 -9 2 -6 -20z"/> <path d="M2014 558 c9 -13 21 -35 27 -50 9 -24 14 -26 31 -17 12 6 39 9 62 6 37 -5 39 -4 22 9 -11 8 -36 14 -55 14 -20 0 -43 5 -51 10 -13 9 -13 12 3 24 16 12 16 14 1 20 -8 3 -25 6 -36 6 -19 0 -20 -1 -4 -22z"/> <path d="M186 558 c4 -7 3 -8 -4 -4 -7 4 -22 0 -34 -8 -12 -9 -18 -16 -13 -16 11 0 -16 -20 -27 -20 -5 0 -8 8 -8 17 0 16 -1 16 -13 0 -6 -10 -27 -25 -46 -35 -42 -21 -56 -48 -20 -37 13 4 33 16 45 26 11 11 32 19 46 19 14 0 33 9 42 19 28 31 71 36 111 12 28 -16 35 -17 35 -6 0 8 -13 21 -30 30 -35 18 -95 21 -84 3z"/> <path d="M2577 552 c-22 -24 -22 -39 -1 -17 9 9 23 14 31 11 8 -3 11 -1 8 4 -3 6 1 10 10 10 9 0 19 -9 22 -20 6 -22 23 -27 23 -7 0 37 -65 50 -93 19z"/> <path d="M598 532 c-10 -2 -18 -10 -18 -18 0 -9 -6 -22 -14 -29 -12 -12 -16 -12 -26 0 -7 8 -22 15 -34 14 -21 0 -21 0 1 -11 31 -15 38 -43 22 -92 -15 -47 -27 -58 -49 -46 -9 5 -22 5 -29 1 -7 -4 -22 -6 -34 -4 -24 5 -92 -20 -102 -37 -11 -17 -53 -11 -105 15 -27 14 -56 25 -65 25 -8 0 -15 5 -15 10 0 17 28 11 80 -15 61 -31 100 -33 107 -5 4 14 11 19 23 15 10 -3 21 -1 25 5 4 6 -6 10 -24 10 -16 0 -32 -4 -36 -9 -6 -11 -54 -4 -72 11 -7 6 -19 8 -28 5 -8 -4 -17 -1 -21 4 -3 6 -15 9 -25 6 -23 -6 -26 11 -4 19 13 5 11 11 -10 30 -20 18 -22 24 -10 24 9 0 13 5 10 10 -10 17 -55 11 -82 -10 -14 -11 -34 -20 -44 -20 -11 0 -19 -7 -19 -16 0 -12 5 -13 23 -7 12 4 40 8 62 8 34 0 40 -3 43 -22 2 -13 -2 -23 -8 -23 -6 0 -9 4 -6 9 3 5 -1 14 -9 21 -12 10 -24 9 -60 -5 -25 -9 -45 -23 -45 -31 0 -10 6 -11 26 -4 33 13 64 13 64 0 0 -5 -15 -10 -33 -10 -47 0 -57 -15 -57 -85 l0 -60 58 -23 c62 -25 77 -23 128 15 17 13 36 23 42 23 6 0 22 11 36 25 16 16 36 25 56 25 17 0 42 7 56 16 23 15 65 16 114 2 8 -3 12 -3 8 -1 -15 9 -7 21 17 27 13 3 39 20 56 37 l32 31 -22 17 c-25 19 -17 35 10 20 11 -5 19 -20 19 -32 0 -24 -41 -69 -72 -80 -27 -10 -21 -27 28 -82 28 -32 47 -46 52 -39 4 7 26 22 50 34 31 16 51 20 75 16 39 -9 61 -9 109 0 33 5 36 8 27 25 -24 46 -106 62 -172 34 -26 -11 -43 -12 -62 -5 -30 11 -42 37 -26 53 8 8 11 6 11 -10 0 -30 41 -37 87 -17 21 9 47 16 58 15 42 -5 105 -41 116 -65 7 -14 23 -33 37 -42 22 -15 27 -15 58 2 19 10 34 21 34 24 0 3 -13 26 -29 51 -37 59 -86 83 -171 86 -36 1 -72 2 -81 2 -13 1 -15 10 -12 49 4 46 3 48 -32 65 -20 9 -44 17 -53 16 -14 0 -14 -2 -2 -6 47 -17 80 -89 50 -108 -6 -4 -10 7 -10 24 0 36 -30 71 -62 71 -18 0 -20 2 -8 10 18 11 11 18 -12 12z m39 -64 c11 -13 23 -31 26 -41 8 -20 -8 -57 -23 -57 -6 0 -5 9 2 20 18 29 -8 74 -45 78 -15 2 -25 8 -22 13 11 16 41 10 62 -13z m251 -117 c37 -19 72 -63 72 -91 0 -20 -15 -9 -30 22 -27 58 -60 73 -159 73 -65 0 -87 3 -84 12 8 20 153 9 201 -16z m-850 -32 c-21 -28 -21 -32 -7 -57 12 -22 22 -27 54 -27 38 0 40 2 43 32 3 27 -1 33 -22 39 -14 3 -30 3 -35 -1 -16 -9 -13 -42 3 -48 9 -4 12 0 9 13 -5 20 12 36 22 20 3 -5 2 -10 -3 -10 -6 0 -9 -8 -8 -17 1 -12 -6 -18 -19 -18 -15 0 -21 8 -23 33 -3 27 1 34 23 42 58 22 100 -45 58 -92 -38 -43 -123 -9 -123 50 0 29 24 72 41 72 5 0 -1 -14 -13 -31z m546 -51 c6 -4 21 -8 34 -8 13 0 20 -4 17 -10 -3 -5 -14 -10 -24 -10 -21 0 -64 43 -54 54 4 4 9 1 12 -6 2 -7 9 -16 15 -20z m237 16 c17 -8 29 -18 26 -21 -3 -2 -14 0 -25 6 -27 14 -97 14 -124 0 -11 -6 -22 -9 -24 -6 -8 8 61 37 89 37 15 0 42 -7 58 -16z m-606 -3 c3 -6 -4 -15 -15 -21 -17 -9 -20 -8 -20 10 0 20 24 28 35 11z"/> <path d="M1832 517 c-24 -26 -29 -49 -9 -41 10 4 41 64 33 64 -1 0 -12 -10 -24 -23z"/> <path d="M179 512 c-15 -13 -20 -25 -15 -37 6 -16 8 -17 24 -1 22 19 56 21 71 3 8 -11 5 -13 -17 -9 -29 4 -90 -22 -73 -32 5 -4 12 -2 16 4 10 17 26 0 20 -21 -5 -15 -1 -19 15 -19 16 0 20 5 16 15 -3 8 -1 15 4 15 6 0 9 5 7 11 -2 12 21 20 68 21 30 1 71 28 43 28 -8 0 -19 -5 -26 -12 -8 -8 -12 -8 -12 -1 0 17 26 34 43 27 8 -3 17 -14 20 -25 4 -14 1 -19 -8 -15 -21 8 -26 -6 -9 -25 9 -10 14 -24 11 -31 -3 -9 8 -13 41 -13 54 0 77 24 50 51 -14 15 -19 15 -37 2 -11 -8 -18 -18 -14 -21 3 -4 12 -2 20 4 10 9 13 8 13 -5 0 -24 -44 -17 -48 8 -5 23 14 36 50 36 38 0 55 -33 33 -66 -12 -18 -12 -24 -2 -24 21 0 37 22 37 51 0 29 -43 69 -74 69 -9 0 -16 8 -16 18 0 12 -5 10 -19 -11 -18 -27 -19 -28 -24 -7 -5 18 -12 21 -44 18 -29 -2 -38 -7 -37 -20 1 -10 -2 -18 -7 -18 -5 0 -9 4 -9 10 0 11 -53 40 -73 40 -8 0 -25 -8 -38 -18z"/> <path d="M2830 512 c-18 -14 -21 -23 -13 -36 9 -16 11 -16 22 -2 17 21 55 20 76 0 13 -13 19 -14 28 -5 9 10 6 18 -16 37 -33 29 -67 31 -97 6z"/> <path d="M2973 519 c-15 -5 -20 -14 -16 -28 5 -20 6 -20 25 5 24 29 21 35 -9 23z"/> <path d="M1956 513 c19 -14 34 -51 28 -67 -9 -23 -27 -20 -19 3 6 20 -30 55 -47 45 -19 -12 -8 -32 15 -26 20 5 21 4 8 -12 -8 -9 -16 -14 -19 -11 -3 3 -15 -1 -27 -9 -25 -17 -75 -23 -93 -13 -6 5 -12 5 -12 0 0 -4 -11 -13 -25 -19 -21 -10 -25 -9 -30 6 -7 22 -33 45 -42 36 -3 -3 2 -15 12 -26 22 -25 22 -65 0 -90 -22 -24 -35 -25 -61 -5 -18 14 -17 14 13 9 28 -6 34 -3 44 19 10 22 9 31 -5 51 -28 44 -108 47 -121 6 -3 -11 -10 -20 -15 -20 -5 0 -7 -7 -3 -16 4 -12 0 -14 -21 -8 -15 3 -32 1 -40 -5 -11 -9 -15 -9 -18 0 -2 6 -25 13 -51 16 -40 5 -51 2 -68 -16 -11 -11 -28 -21 -37 -21 -10 0 -27 -7 -38 -15 -12 -8 -25 -11 -30 -7 -5 4 -2 -1 5 -10 7 -9 10 -22 6 -28 -3 -5 -1 -10 4 -10 6 0 11 9 11 20 0 21 27 40 58 40 10 0 27 9 37 20 18 20 75 28 75 11 0 -5 -12 -8 -27 -8 -15 0 -34 -10 -44 -22 -9 -11 -26 -21 -37 -21 -28 0 -52 -10 -52 -22 0 -5 9 -7 19 -3 11 3 22 2 25 -4 3 -5 -13 -12 -36 -16 -84 -12 -97 -17 -122 -40 -14 -13 -26 -21 -26 -17 0 4 -5 0 -10 -8 -9 -13 -10 -13 -10 0 0 28 39 79 77 99 41 22 32 28 -14 9 -15 -6 -32 -12 -38 -12 -5 -1 -19 -17 -29 -37 -19 -34 -22 -36 -62 -31 -33 3 -52 -1 -80 -17 -20 -12 -40 -18 -43 -13 -18 28 -90 42 -120 23 -10 -6 0 -8 27 -4 27 4 47 1 57 -7 24 -20 17 -30 -11 -15 -18 9 -35 10 -57 4 -40 -11 -50 -11 -43 0 9 14 -51 34 -81 26 -15 -3 -39 -15 -54 -26 -43 -30 -70 -24 -119 26 -24 24 -45 43 -47 41 -2 -2 1 -16 7 -32 l11 -29 -23 23 c-14 12 -31 22 -39 21 -8 0 -5 -5 8 -11 12 -6 24 -17 27 -25 3 -8 3 -13 -1 -11 -5 2 -21 10 -36 18 -25 12 -32 12 -55 0 -14 -8 -27 -21 -30 -29 -3 -9 0 -11 8 -6 7 4 15 2 19 -4 6 -8 16 -8 39 0 35 12 97 5 108 -12 10 -17 -2 -20 -29 -8 -16 7 -40 9 -64 4 -32 -7 -35 -9 -15 -14 21 -6 22 -7 6 -29 l-15 -23 -29 31 c-35 38 -74 39 -138 5 -26 -14 -51 -25 -57 -25 -6 0 -16 -9 -22 -20 -12 -18 -16 -18 -50 -6 -21 7 -58 17 -82 21 -43 7 -44 7 -38 -16 4 -13 7 -30 7 -37 0 -9 8 -7 26 7 15 12 41 21 58 21 l31 -1 -38 -13 c-39 -14 -77 -42 -77 -58 0 -16 48 -8 92 17 49 27 82 32 145 21 44 -8 68 -2 57 15 -4 6 -11 6 -20 -2 -11 -9 -14 -8 -14 5 0 10 9 16 24 16 29 0 39 -22 22 -45 -12 -16 -19 -17 -77 -5 -57 11 -68 11 -104 -5 -35 -16 -37 -19 -17 -22 13 -3 35 0 50 4 15 5 38 6 52 2 47 -13 109 -10 130 8 38 33 18 85 -36 99 -27 7 -52 -9 -64 -41 -9 -20 -9 -20 -9 1 -2 49 75 72 120 36 28 -24 31 -79 4 -98 -18 -13 -17 -14 9 -14 15 0 46 13 69 29 71 49 186 78 202 51 4 -6 -11 -10 -37 -10 -40 0 -168 -50 -168 -66 0 -3 37 -3 82 1 58 5 89 13 103 25 11 10 35 25 52 34 43 21 171 38 209 26 24 -7 17 -8 -36 -9 -88 -2 -147 -17 -195 -49 l-40 -27 38 -3 c29 -3 45 3 69 23 27 23 39 26 79 23 29 -3 53 0 65 9 10 7 24 13 31 13 8 0 28 17 46 37 18 20 45 45 62 55 l30 19 -30 -6 c-25 -5 -27 -4 -12 5 20 13 120 -2 144 -21 15 -13 48 10 58 41 6 20 63 50 92 49 10 0 0 -7 -22 -15 -22 -8 -47 -22 -55 -31 -14 -14 -13 -15 5 -8 11 5 41 10 67 13 35 3 49 9 53 22 18 57 160 131 222 115 19 -4 29 -1 40 15 8 11 22 20 31 20 16 -1 16 -1 0 -11 -45 -26 -4 -89 57 -89 44 0 59 14 60 55 0 35 3 38 44 52 24 8 53 12 64 9 12 -3 25 1 32 11 19 26 76 19 103 -12 50 -59 12 -187 -56 -184 -23 2 -24 2 -5 6 64 12 71 116 10 153 -27 17 -29 20 -11 20 27 0 54 -31 64 -72 7 -31 8 -31 9 -6 1 39 -17 74 -46 87 -32 15 -57 7 -71 -22 -6 -12 -11 -16 -11 -9 -1 19 -53 14 -80 -8 -18 -16 -21 -23 -12 -34 16 -18 4 -64 -19 -76 -26 -14 -49 -12 -25 2 26 15 35 28 35 53 -1 20 -1 20 -12 0 -16 -29 -28 -35 -73 -36 -38 -1 -39 -1 -11 -9 15 -5 36 -16 47 -26 39 -35 97 15 83 71 -5 20 -1 25 20 31 16 4 32 1 41 -6 17 -14 21 -60 5 -60 -5 0 -10 11 -10 25 0 20 -5 25 -23 25 -20 0 -23 -4 -19 -29 5 -38 -12 -69 -43 -77 -14 -3 -25 -11 -25 -16 0 -6 10 -8 23 -4 79 23 114 19 148 -15 l20 -20 30 26 c36 29 92 34 127 9 13 -9 22 -11 22 -4 0 6 16 18 35 26 45 18 45 28 0 21 -19 -3 -37 -1 -40 4 -8 13 -52 11 -78 -3 -20 -10 -21 -10 -7 6 12 16 24 17 89 11 42 -4 80 -13 86 -20 14 -18 55 -29 55 -16 0 13 -36 51 -48 51 -4 0 -13 14 -19 30 -10 25 -17 30 -46 30 -22 0 -37 6 -41 15 -3 8 -11 15 -18 15 -7 0 -18 10 -23 23 -6 12 -20 23 -32 25 -20 3 -22 7 -17 46 5 36 3 44 -12 48 -11 3 -28 9 -39 13 -11 4 -15 3 -9 -2z m-306 -103 c25 -14 43 -47 33 -63 -5 -8 -9 -4 -13 12 -9 38 -35 49 -70 29 -35 -20 -41 -7 -8 16 26 19 33 19 58 6z m292 -77 c10 -9 18 -23 18 -32 0 -24 -29 -61 -48 -61 -13 0 -11 4 6 16 31 21 26 64 -8 81 -21 11 -22 13 -6 13 11 0 28 -7 38 -17z m136 -15 c15 -15 16 -38 2 -38 -5 0 -10 7 -10 15 0 8 -4 15 -10 15 -5 0 -10 5 -10 10 0 14 13 13 28 -2z m99 -33 c2 -6 -15 -10 -37 -10 -39 0 -47 5 -33 19 10 10 66 3 70 -9z m-1384 -107 c12 -6 39 -10 60 -9 40 3 97 -15 97 -30 0 -4 -14 -3 -31 3 -17 6 -50 8 -75 5 -24 -2 -44 -1 -44 4 0 4 -18 13 -41 19 -35 10 -46 8 -85 -11 -31 -15 -43 -26 -40 -36 5 -13 -3 -14 -51 -8 -64 7 -105 -4 -140 -37 -13 -12 -23 -17 -23 -11 0 14 41 50 67 58 13 3 36 7 53 7 24 1 28 4 19 15 -9 10 -5 13 19 13 17 0 34 -5 37 -10 4 -6 18 0 37 15 33 28 102 34 141 13z m30 -58 c5 -4 -14 -5 -41 -2 -34 3 -59 -1 -81 -13 -36 -18 -51 -15 -26 5 32 27 124 33 148 10z"/> <path d="M2750 482 c-8 -3 -26 -13 -39 -23 -13 -11 -39 -19 -57 -19 -20 0 -34 -5 -34 -12 0 -6 -6 -4 -13 7 -16 20 -38 13 -36 -13 1 -15 2 -15 6 1 6 22 23 22 23 1 0 -14 7 -16 48 -10 127 20 123 20 129 -2 4 -17 8 -19 23 -10 14 9 16 15 7 30 -7 10 -17 18 -24 18 -6 0 -15 5 -19 11 -5 9 1 10 20 5 16 -4 25 -3 22 2 -8 13 -37 20 -56 14z"/> <path d="M2541 466 c-7 -8 -25 -18 -41 -21 -45 -10 -80 -48 -80 -88 0 -31 -3 -35 -32 -41 -18 -4 -42 -14 -53 -23 -20 -15 -19 -15 5 -9 14 3 41 6 60 6 33 0 35 2 36 35 1 48 46 95 90 95 23 0 33 5 37 20 3 11 13 20 22 20 9 0 13 5 10 10 -9 15 -41 12 -54 -4z"/> <path d="M2838 456 c-10 -7 -18 -17 -18 -21 0 -4 6 -2 14 4 17 14 29 0 20 -23 -5 -12 0 -16 21 -16 22 0 25 3 16 14 -9 11 -8 17 4 29 8 9 15 18 15 21 0 11 -55 5 -72 -8z"/> <path d="M278 439 c-10 -5 -18 -17 -18 -25 0 -12 4 -12 26 3 21 14 29 14 46 4 26 -16 38 -3 14 15 -23 16 -44 17 -68 3z"/> <path d="M2926 434 c-24 -23 -19 -37 6 -20 12 9 33 16 46 16 13 0 20 4 17 10 -9 15 -52 12 -69 -6z"/> <path d="M1502 416 c-14 -30 -9 -47 9 -29 6 6 9 21 7 34 -3 23 -3 23 -16 -5z"/> <path d="M2685 404 c-42 -15 -125 -15 -137 0 -3 5 -19 4 -38 -4 -48 -20 -80 -100 -45 -114 11 -4 15 1 15 19 0 14 9 34 20 45 21 21 50 27 50 10 0 -5 -7 -10 -15 -10 -18 0 -49 -45 -40 -60 3 -6 23 -19 44 -29 20 -11 43 -27 50 -35 8 -9 28 -16 45 -16 17 0 51 -9 75 -20 49 -23 70 -20 118 16 17 13 36 24 42 24 5 0 21 11 35 25 17 17 36 25 61 25 30 0 35 3 35 23 0 34 -9 38 -31 16 -25 -25 -48 -24 -100 6 -24 14 -54 25 -66 25 -13 0 -23 5 -23 10 0 18 44 10 89 -15 53 -30 91 -33 98 -6 3 12 11 17 19 14 8 -3 14 0 14 6 0 13 -20 14 -53 2 -17 -7 -30 -6 -44 4 -11 8 -32 15 -46 17 -14 2 -29 7 -33 11 -4 4 -13 2 -21 -5 -7 -6 -16 -8 -20 -5 -3 4 -11 2 -18 -3 -8 -7 -11 -3 -11 12 1 28 -18 31 -69 12z m40 -34 c-11 -5 -32 -11 -48 -15 -39 -8 -67 -40 -67 -76 0 -17 -4 -28 -10 -24 -18 11 -10 56 15 80 13 14 19 25 12 25 -24 0 -57 -31 -66 -63 l-9 -32 -1 32 c-1 40 41 77 79 70 14 -3 34 -1 45 3 11 5 31 9 45 9 23 0 23 -1 5 -9z m-39 -42 c-22 -31 -20 -75 3 -88 32 -16 69 -12 81 10 23 43 -30 81 -60 44 -11 -12 -10 -18 3 -32 11 -10 17 -12 17 -4 0 7 5 12 10 12 16 0 12 -17 -6 -24 -21 -8 -44 11 -44 35 0 10 11 26 25 35 23 15 27 15 50 0 47 -31 22 -106 -35 -106 -36 0 -80 35 -80 64 0 13 9 35 21 50 25 32 36 35 15 4z m172 -37 c11 -6 10 -11 -4 -25 -15 -15 -19 -16 -32 -3 -25 26 4 49 36 28z"/> <path d="M1467 316 c-43 -16 -102 -59 -117 -85 -7 -14 -5 -28 6 -50 21 -42 51 -40 111 8 58 45 96 66 139 75 l31 7 -27 29 c-32 34 -77 39 -143 16z m85 -27 c-62 -12 -121 -49 -143 -89 -12 -23 -18 -29 -19 -17 -1 53 92 118 165 116 l40 -1 -43 -9z m-54 -54 c-26 -14 -52 -33 -57 -42 -6 -10 -11 -13 -11 -7 0 15 40 51 70 63 46 18 45 10 -2 -14z"/> <path d="M1182 255 l-37 -36 36 23 c82 51 76 47 56 47 -9 1 -34 -15 -55 -34z"/> <path d="M2322 253 c-30 -14 -63 -53 -46 -53 4 0 -1 -8 -10 -19 -16 -18 -16 -19 11 -24 15 -3 33 -2 38 3 6 4 29 14 52 20 104 31 233 -52 233 -150 0 -21 5 -30 16 -30 14 0 16 8 11 46 -13 117 -174 210 -294 171 -56 -19 -67 -15 -24 7 47 25 136 21 196 -9 28 -13 57 -30 66 -37 29 -24 69 -90 69 -114 0 -29 5 -30 37 -4 14 11 41 20 59 20 19 0 34 5 34 10 0 6 -18 10 -39 10 -45 0 -92 15 -103 33 -26 41 20 49 91 17 57 -26 71 -25 111 10 19 16 45 29 58 30 26 0 95 60 68 60 -9 0 -24 -9 -33 -20 -10 -11 -25 -20 -34 -20 -9 0 -36 -13 -60 -30 -53 -35 -62 -36 -124 -9 -26 12 -60 19 -76 17 -16 -3 -30 1 -33 8 -2 6 -33 26 -67 43 -72 36 -152 41 -207 14z"/> <path d="M355 252 c-5 -4 -11 -11 -12 -17 -1 -5 -5 -19 -9 -30 -5 -14 -1 -12 15 8 12 15 29 27 36 27 8 0 17 5 20 10 7 11 -35 13 -50 2z"/> <path d="M278 230 c-7 -11 -20 -20 -29 -20 -9 0 -36 -13 -60 -30 -50 -34 -63 -36 -110 -16 -57 23 -79 28 -79 17 0 -5 15 -13 33 -16 17 -4 35 -12 38 -17 3 -5 24 -12 45 -15 33 -4 45 0 78 26 21 17 46 31 55 31 18 1 38 15 60 43 12 15 11 17 -3 17 -9 0 -21 -9 -28 -20z"/> <path d="M1649 220 c61 -13 62 -19 3 -18 -28 0 -65 -7 -81 -15 -17 -9 -33 -12 -36 -7 -3 5 1 10 7 13 7 2 10 7 7 11 -4 4 -28 -10 -54 -30 -62 -47 -97 -59 -125 -44 -18 10 -21 9 -18 -2 6 -18 47 -38 79 -38 14 0 57 20 94 45 82 53 97 59 139 51 45 -9 101 -75 77 -91 -5 -2 -12 6 -15 20 -7 27 -52 55 -89 55 -14 0 -49 -16 -78 -36 -110 -75 -165 -79 -219 -18 -39 45 -71 45 -116 0 -19 -19 -34 -41 -34 -49 0 -11 9 -6 30 14 25 26 36 30 72 27 23 -2 43 -8 45 -14 2 -7 -8 -9 -27 -6 -35 5 -86 -13 -94 -34 -7 -19 10 -27 33 -15 11 6 35 12 54 13 19 2 33 6 31 10 -2 3 33 6 78 5 76 -2 87 0 124 26 60 41 100 50 139 31 29 -13 55 -49 55 -74 0 -6 -9 -19 -21 -31 -19 -19 -19 -20 -3 -17 10 2 25 14 32 28 l13 25 -4 -27 -4 -28 86 1 c97 0 86 17 -11 18 -32 1 -58 6 -58 11 0 18 94 11 135 -10 22 -11 55 -20 75 -19 l35 1 -45 15 c-25 9 -56 24 -70 34 -36 24 -93 33 -120 19 -18 -10 -21 -9 -18 2 8 22 93 22 136 -1 20 -11 65 -31 100 -45 57 -23 69 -24 120 -14 31 5 89 8 129 4 64 -5 71 -4 66 12 -13 50 51 112 115 112 65 0 132 -54 132 -107 0 -27 4 -33 21 -33 19 0 21 4 14 37 -9 52 -41 92 -89 114 -74 34 -161 19 -203 -35 -14 -18 -30 -26 -51 -26 -17 0 -59 -13 -94 -30 -63 -30 -105 -39 -93 -20 3 5 14 10 24 10 10 0 39 11 65 25 26 14 64 28 85 31 20 3 42 14 48 24 11 16 8 16 -34 9 -25 -5 -62 -19 -82 -31 -63 -39 -143 -68 -160 -58 -14 8 -14 9 1 10 27 0 242 99 234 107 -2 3 -13 0 -23 -5 -10 -5 -27 -6 -38 -2 -19 7 -19 7 4 19 12 7 20 15 18 18 -7 7 -50 -17 -63 -36 -10 -12 -15 -13 -27 -3 -10 9 -22 10 -41 2 -14 -5 -39 -7 -54 -4 -19 4 -32 1 -41 -10 -16 -20 -47 -21 -54 -2 -3 8 -15 12 -30 9 -14 -3 -42 0 -62 7 -31 10 -39 10 -56 -6 -18 -16 -19 -16 -19 4 0 29 -52 63 -103 68 l-42 3 44 -9z m191 -80 c0 -5 -10 -10 -23 -10 -13 0 -28 -5 -35 -12 -7 -7 -12 -8 -12 -2 0 17 23 34 47 34 13 0 23 -4 23 -10z m283 -9 c6 -6 -6 -7 -30 -4 -28 4 -42 1 -52 -11 -8 -9 -28 -16 -47 -16 -19 0 -34 -4 -34 -10 0 -5 5 -10 10 -10 6 0 10 -5 10 -10 0 -16 -52 0 -77 23 -14 12 -30 18 -43 14 -14 -3 -20 -1 -17 6 6 21 45 19 66 -2 25 -25 28 -25 47 -6 9 8 25 15 37 15 12 0 31 8 42 16 20 16 70 13 88 -5z"/> <path d="M1193 148 c-18 -13 -31 -30 -30 -38 1 -10 -5 -14 -18 -12 -104 18 -149 5 -191 -57 -21 -31 -22 -36 -8 -39 9 -2 29 10 45 27 15 17 40 36 54 41 34 13 92 13 100 0 4 -6 -10 -10 -35 -10 -43 0 -88 -18 -109 -44 -21 -26 19 -20 70 9 24 14 59 25 77 25 26 0 32 4 32 23 1 28 27 62 65 81 30 16 30 16 5 16 -14 0 -40 -10 -57 -22z"/> <path d="M2885 142 c-16 -10 -42 -22 -57 -25 -15 -4 -32 -16 -38 -27 -7 -14 -21 -20 -45 -20 -32 0 -95 -40 -95 -61 0 -17 39 -9 76 16 43 29 64 32 147 20 39 -6 47 -5 47 9 0 19 -16 22 -23 4 -2 -7 -8 -10 -12 -6 -11 11 4 28 26 28 26 0 36 -28 17 -46 -13 -13 -24 -14 -74 -3 -53 11 -63 10 -97 -7 l-38 -20 111 -1 c124 -2 150 8 150 59 0 60 -85 75 -114 20 -11 -19 -15 -22 -16 -9 -1 55 92 78 129 31 l21 -27 0 30 c0 16 -5 34 -12 41 -18 18 -69 15 -103 -6z"/> <path d="M1014 135 c-17 -7 -46 -31 -64 -54 -22 -26 -41 -41 -56 -41 -13 0 -26 -4 -29 -10 -3 -5 -30 -10 -60 -10 -30 0 -57 -5 -60 -11 -5 -7 22 -9 84 -7 50 2 91 7 91 12 0 5 12 24 26 43 29 38 91 73 130 73 32 0 29 5 -6 13 -14 3 -39 0 -56 -8z"/> <path d="M2373 116 c-37 -17 -53 -43 -53 -85 0 -24 4 -31 20 -31 16 0 20 7 20 30 0 56 66 89 121 60 20 -11 27 -64 10 -75 -6 -3 -9 7 -8 22 2 20 -5 31 -25 42 -25 14 -29 14 -55 -5 -16 -12 -29 -33 -31 -47 -3 -23 0 -27 22 -27 21 0 26 5 26 25 0 19 5 25 23 25 20 -1 20 -2 4 -11 -28 -16 -2 -39 44 -39 46 0 60 27 35 65 -35 53 -100 74 -153 51z"/> <path d="M1555 85 c-49 -29 -71 -35 -120 -36 l-60 -1 35 -13 c38 -14 30 -21 -30 -28 -24 -3 -18 -4 20 -5 39 -2 68 4 95 18 22 11 54 20 72 20 24 0 37 7 49 25 9 14 24 25 34 25 20 0 46 -27 36 -37 -4 -4 -11 -1 -16 6 -5 8 -15 11 -26 7 -16 -6 -16 -7 2 -21 17 -13 16 -14 -15 -8 -25 4 -32 3 -27 -5 5 -8 -6 -12 -36 -12 -24 0 -50 -5 -58 -10 -21 -13 103 -13 152 1 52 14 63 52 24 86 -36 31 -60 29 -131 -12z"/> <path d="M1117 25 c-59 -20 -56 -25 15 -25 44 0 69 5 77 14 9 11 7 15 -11 20 -31 8 -37 7 -81 -9z"/> <path d="M1255 20 l-40 -19 60 2 c46 2 60 6 60 17 0 22 -35 22 -80 0z"/> </g> </svg> 