<svg xmlns="http://www.w3.org/2000/svg" aria-hidden="true" data-bbox="30 30 140 140" data-type="color" viewBox="30 30 140 140"><defs><style>#comp-m69434ay3__item1 svg [data-color=&quot;1&quot;]{fill:#1d0e03}</style></defs><path fill="#e8344a" d="M170 100c0 38.66-31.34 70-70 70s-70-31.34-70-70 31.34-70 70-70 70 31.34 70 70z" data-color="1" opacity=".2"/><path fill="#e8344a" d="M160.1 100c0 33.192-26.908 60.1-60.1 60.1S39.9 133.192 39.9 100 66.808 39.9 100 39.9s60.1 26.908 60.1 60.1z" data-color="1" opacity=".3"/><path fill="#e8344a" d="M150 100c0 27.614-22.386 50-50 50s-50-22.386-50-50 22.386-50 50-50 50 22.386 50 50z" data-color="1" opacity=".5"/><path fill="#e8344a" d="M140 100c0 22.091-17.909 40-40 40s-40-17.909-40-40 17.909-40 40-40 40 17.909 40 40z" data-color="1" opacity=".6"/><path fill="#e8344a" d="M124.942 93.013c3.86 13.773-4.177 28.068-17.95 31.928-13.773 3.86-28.069-4.176-31.929-17.95-3.86-13.773 4.177-28.068 17.95-31.928 13.773-3.86 28.068 4.176 31.929 17.95z" data-color="1"/><path fill="#e8344a" d="M170 100c0 38.66-31.34 70-70 70s-70-31.34-70-70 31.34-70 70-70 70 31.34 70 70z" data-color="1" opacity=".2"/><path fill="#e8344a" d="M160.1 100c0 33.192-26.908 60.1-60.1 60.1S39.9 133.192 39.9 100 66.808 39.9 100 39.9s60.1 26.908 60.1 60.1z" data-color="1" opacity=".3"/><path fill="#e8344a" d="M150 100c0 27.614-22.386 50-50 50s-50-22.386-50-50 22.386-50 50-50 50 22.386 50 50z" data-color="1" opacity=".5"/><path fill="#e8344a" d="M140 100c0 22.091-17.909 40-40 40s-40-17.909-40-40 17.909-40 40-40 40 17.909 40 40z" data-color="1" opacity=".6"/><path fill="#e8344a" d="M124.942 93.013c3.86 13.773-4.177 28.068-17.95 31.928-13.773 3.86-28.069-4.176-31.929-17.95-3.86-13.773 4.177-28.068 17.95-31.928 13.773-3.86 28.068 4.176 31.929 17.95z" data-color="1"/></svg>